G04 ================== begin FILE IDENTIFICATION RECORD ==================*
G04 Layout Name:  C:/USERS/USER/DESKTOP/WORK/0731/allegro/CHOPPING_WAVE.brd*
G04 Film Name:    BOTTOM*
G04 File Format:  Gerber RS274X*
G04 File Origin:  Cadence Allegro 17.2-S052*
G04 Origin Date:  Wed Jul 31 13:17:38 2019*
G04 *
G04 Layer:  ETCH/BOTTOM*
G04 Layer:  PIN/BOTTOM*
G04 Layer:  VIA CLASS/BOTTOM*
G04 *
G04 Offset:    (0.0000 0.0000)*
G04 Mirror:    No*
G04 Mode:      Positive*
G04 Rotation:  0*
G04 FullContactRelief:  Yes*
G04 UndefLineWidth:     0.0000*
G04 ================== end FILE IDENTIFICATION RECORD ====================*
%FSLAX25Y25*MOMM*%
%IR0*IPPOS*OFA0.00000B0.00000*MIA0B0*SFA1.00000B1.00000*%
%ADD10C,.635*%
%ADD12C,1.524*%
%ADD11C,1.651*%
%ADD13R,1.524X1.524*%
%ADD14C,.5*%
%ADD16C,2.4134*%
%ADD17C,2.5404*%
%ADD15C,2.6674*%
G75*
%LPD*%
G75*
G36*
G01X8744750Y6500000D02*
X9245980D01*
Y6245980D01*
X9500000D01*
Y3627020D01*
G03Y3372980I0J-127020D01*
G01Y3360320D01*
G03Y3131680I0J-114320D01*
G01Y754020D01*
X9245980D01*
Y500000D01*
X754020D01*
Y754020D01*
X500000D01*
Y2864980D01*
G03X601910Y2916180I0J127022D01*
G01X642500D01*
G03X696110Y2938390I0J75806D01*
G01X1619360Y3861640D01*
G03X1639800Y3898940I-53602J53624D01*
G01X1640670Y3902930D01*
X2899250D01*
G03X2952860Y3925140I0J75806D01*
G01X3365160Y4337430D01*
X4222750D01*
G03X4276360Y4359640I0J75806D01*
G01X4984410Y5067680D01*
X5152970D01*
G02X5162570Y5054170I6J-10161D01*
G03X5156180Y5016500I107927J-37685D01*
G03X5384820I114320J0D01*
G03X5378430Y5054170I-114317J-15D01*
G02X5388030Y5067680I9594J3349D01*
G01X5493090D01*
X5512180Y5048590D01*
Y4857410D01*
X5493090Y4838320D01*
X5372410D01*
G03X5270500Y4889520I-101910J-75822D01*
G03Y4635480I0J-127020D01*
G03X5372410Y4686680I0J127022D01*
G01X5524500D01*
G03X5578110Y4708890I0J75806D01*
G01X5641610Y4772390D01*
G03X5663820Y4826000I-53596J53610D01*
G01Y5080000D01*
G03X5641610Y5133610I-75806J0D01*
G01X5578110Y5197110D01*
G03X5524500Y5219320I-53610J-53596D01*
G01X5401400D01*
G02X5391710Y5232520I4J10159D01*
G03X5397520Y5270500I-121211J37977D01*
G03X5337090Y5378670I-127027J0D01*
G02X5342410Y5397480I5324J8651D01*
G01X5346700D01*
G03X5397520Y5448300I0J50820D01*
G01Y5600700D01*
G03X5346700Y5651520I-50820J0D01*
G01X5194300D01*
G03X5143480Y5600700I0J-50820D01*
G01Y5529270D01*
G02X5126140Y5522090I-10159J5D01*
G01X5092320Y5555910D01*
Y5937590D01*
X5301910Y6147180D01*
X8287090D01*
X8687180Y5747090D01*
Y5492410D01*
X8399280Y5204510D01*
G02X8381950Y5211350I-7179J7186D01*
G03X8303020Y5324590I-126946J-4355D01*
G02Y5343410I3838J9410D01*
G03X8382020Y5461000I-48015J117590D01*
G03X8127980I-127020J0D01*
G03X8206980Y5343410I127015J0D01*
G02Y5324590I-3838J-9410D01*
G03Y5089410I48015J-117590D01*
G02Y5070590I-3838J-9410D01*
G03Y4835410I48015J-117590D01*
G02Y4816590I-3838J-9410D01*
G03X8127980Y4699000I48015J-117590D01*
G03X8382020I127020J0D01*
G03X8303020Y4816590I-127015J0D01*
G02Y4835410I3838J9410D01*
G03X8382020Y4953000I-48015J117590D01*
G03X8381010Y4969000I-127021J14D01*
G01X8380690Y4971470D01*
X8796840Y5387610D01*
G02X8814180Y5380430I7181J-7185D01*
G01Y3729220D01*
G03X8788140Y3705600I75804J-109734D01*
G02X8770830Y3708710I-7756J6559D01*
G03X8753110Y3736610I-71323J-25722D01*
G01X8435610Y4054110D01*
G03X8382000Y4076320I-53610J-53596D01*
G01X7460910D01*
X7187820Y4349410D01*
Y4540590D01*
X7348720Y4701490D01*
G02X7366050Y4694650I7179J-7186D01*
G03X7493000Y4571980I126950J4355D01*
G03X7620020Y4699000I0J127020D01*
G03X7541020Y4816590I-127015J0D01*
G02Y4835410I3838J9410D01*
G03Y5070590I-48015J117590D01*
G02Y5089410I3838J9410D01*
G03X7620020Y5207000I-48015J117590D01*
G03X7559590Y5315170I-127027J0D01*
G02X7564910Y5333980I5324J8651D01*
G01X7569200D01*
G03X7620020Y5384800I0J50820D01*
G01Y5537200D01*
G03X7569200Y5588020I-50820J0D01*
G01X7416800D01*
G03X7365980Y5537200I0J-50820D01*
G01Y5384800D01*
G03X7416800Y5333980I50820J0D01*
G01X7421090D01*
G02X7426410Y5315170I-4J-10159D01*
G03X7365980Y5207000I66597J-108170D01*
G03X7444980Y5089410I127015J0D01*
G02Y5070590I-3838J-9410D01*
G03X7365980Y4953000I48015J-117590D01*
G03X7366990Y4937000I127021J-14D01*
G01X7367310Y4934530D01*
X7058390Y4625610D01*
G03X7036180Y4572000I53596J-53610D01*
G01Y4318000D01*
G03X7058390Y4264390I75806J0D01*
G01X7375890Y3946890D01*
G03X7429500Y3924680I53610J53596D01*
G01X8350590D01*
X8378460Y3896810D01*
G02X8372040Y3879500I-7184J-7181D01*
G03X8272280Y3822320I9964J-132998D01*
G01X7920220D01*
G03X7700780I-109720J-75816D01*
G01X7333910D01*
X6158190Y4998030D01*
X6158510Y5000500D01*
G03X6159520Y5016500I-126011J15986D01*
G03X6080520Y5134090I-127015J0D01*
G02Y5152910I3838J9410D01*
G03Y5388090I-48015J117590D01*
G02Y5406910I3838J9410D01*
G03X6159520Y5524500I-48015J117590D01*
G03X5905480I-127020J0D01*
G03X5984480Y5406910I127015J0D01*
G02Y5388090I-3838J-9410D01*
G03Y5152910I48015J-117590D01*
G02Y5134090I-3838J-9410D01*
G03Y4898910I48015J-117590D01*
G02Y4880090I-3838J-9410D01*
G03X5905480Y4762500I48015J-117590D01*
G03X6032500Y4635480I127020J0D01*
G03X6159450Y4758150I0J127025D01*
G02X6176780Y4764990I10151J-346D01*
G01X7248890Y3692890D01*
G03X7302500Y3670680I53610J53596D01*
G01X7700780D01*
G03X7920220I109720J75816D01*
G01X8272280D01*
G03X8382000Y3613130I109720J75816D01*
G03X8515000Y3736540I0J133373D01*
G02X8532310Y3742960I10129J-764D01*
G01X8623680Y3651590D01*
Y2634910D01*
X8477590Y2488820D01*
X6381410D01*
X6362320Y2507910D01*
Y3327090D01*
G03X6413520Y3429000I-75822J101910D01*
G03X6159480I-127020J0D01*
G03X6210680Y3327090I127022J0D01*
G01Y2476500D01*
G03X6232890Y2422890I75806J0D01*
G01X6242770Y2413000D01*
X6021390Y2191610D01*
G03X5999180Y2138000I53596J-53610D01*
G01Y1307720D01*
G03X5941630Y1198000I75816J-109720D01*
G03X6208370I133370J0D01*
G03X6150820Y1307720I-133366J0D01*
G01Y2106590D01*
X6381410Y2337180D01*
X8509000D01*
G03X8562610Y2359390I0J75806D01*
G01X8753110Y2549890D01*
G03X8757720Y2554930I-53583J53640D01*
G02X8766330Y2553570I3898J-3258D01*
G03X8890000Y2470130I123670J49928D01*
G03X9023370Y2603500I0J133370D01*
G03X9021640Y2624930I-133371J18D01*
G01X9021220Y2627490D01*
X9197610Y2803890D01*
G03X9219820Y2857500I-53596J53610D01*
G01Y5969000D01*
G03X9197610Y6022610I-75806J0D01*
G01X8737570Y6482660D01*
G02X8744750Y6500000I7185J7181D01*
G37*
G36*
G01X754020D02*
X3320250D01*
G02X3327430Y6482660I-5J-10159D01*
G01X3248390Y6403610D01*
G03X3226180Y6350000I53596J-53610D01*
G01Y5461000D01*
G03X3248390Y5407390I75806J0D01*
G01X3366810Y5288970D01*
X3366490Y5286500D01*
G03X3365480Y5270500I126011J-15986D01*
G03X3444480Y5152910I127015J0D01*
G02Y5134090I-3838J-9410D01*
G03Y4898910I48015J-117590D01*
G02Y4880090I-3838J-9410D01*
G03X3365480Y4762500I48015J-117590D01*
G03X3416680Y4660590I127022J0D01*
G01Y4603410D01*
X2867840Y4054570D01*
X1641570D01*
Y4561820D01*
G02X1651680Y4571980I10159J1D01*
G03X1778020Y4699000I-682J127020D01*
G03X1699020Y4816590I-127015J0D01*
G02Y4835410I3838J9410D01*
G03Y5070590I-48015J117590D01*
G02Y5089410I3838J9410D01*
G03X1778020Y5207000I-48015J117590D01*
G03X1717590Y5315170I-127027J0D01*
G02X1722910Y5333980I5324J8651D01*
G01X1727200D01*
G03X1778020Y5384800I0J50820D01*
G01Y5537200D01*
G03X1727200Y5588020I-50820J0D01*
G01X1574800D01*
G03X1523980Y5537200I0J-50820D01*
G01Y5384800D01*
G03X1574800Y5333980I50820J0D01*
G01X1579090D01*
G02X1584410Y5315170I-4J-10159D01*
G03X1523980Y5207000I66597J-108170D01*
G03X1602980Y5089410I127015J0D01*
G02Y5070590I-3838J-9410D01*
G03Y4835410I48015J-117590D01*
G02Y4816590I-3838J-9410D01*
G03X1523980Y4699000I48015J-117590D01*
G03X1524990Y4683000I127021J-14D01*
G01X1525310Y4680530D01*
X1512140Y4667360D01*
G03X1489930Y4613750I53596J-53610D01*
G01Y3946660D01*
X611090Y3067820D01*
X601940D01*
X600410Y3069790D01*
G03X500000Y3119020I-100410J-77784D01*
G01Y3131680D01*
G03Y3360320I0J114320D01*
G01Y3372980D01*
G03Y3627020I0J127020D01*
G01Y6245980D01*
X754020D01*
Y6500000D01*
G37*
G36*
G01X3460410Y6401180D02*
X4554930D01*
G02X4562110Y6383840I-5J-10159D01*
G01X4391390Y6213110D01*
G03X4369180Y6159500I53596J-53610D01*
G01Y5613350D01*
G02X4351280Y5606770I-10159J-1D01*
G03X4254500Y5651520I-96780J-82277D01*
G03X4127480Y5524500I0J-127020D01*
G03X4206480Y5406910I127015J0D01*
G02Y5388090I-3838J-9410D01*
G03Y5152910I48015J-117590D01*
G02Y5134090I-3838J-9410D01*
G03Y4898910I48015J-117590D01*
G02Y4880090I-3838J-9410D01*
G03X4127480Y4762500I48015J-117590D01*
G03X4381520I127020J0D01*
G03X4302520Y4880090I-127015J0D01*
G02Y4898910I3838J9410D01*
G03X4381520Y5016500I-48015J117590D01*
G03X4380510Y5032500I-127021J14D01*
G01X4380190Y5034970D01*
X4498610Y5153390D01*
G03X4520820Y5207000I-53596J53610D01*
G01Y6128090D01*
X4666910Y6274180D01*
X5189930D01*
G02X5197110Y6256840I-5J-10159D01*
G01X4962890Y6022610D01*
G03X4940680Y5969000I53596J-53610D01*
G01Y5524500D01*
G03X4962890Y5470890I75806J0D01*
G01X5144810Y5288970D01*
X5144490Y5286500D01*
G03X5143480Y5270500I126011J-15986D01*
G03X5149290Y5232520I127021J-3D01*
G02X5139600Y5219320I-9694J-3041D01*
G01X4953000D01*
G03X4899390Y5197110I0J-75806D01*
G01X4191340Y4489070D01*
X3541320D01*
G02X3534140Y4506410I5J10159D01*
G01X3546110Y4518390D01*
G03X3568320Y4572000I-53596J53610D01*
G01Y4660590D01*
G03X3619520Y4762500I-75822J101910D01*
G03X3540520Y4880090I-127015J0D01*
G02Y4898910I3838J9410D01*
G03Y5134090I-48015J117590D01*
G02Y5152910I3838J9410D01*
G03X3619520Y5270500I-48015J117590D01*
G03X3559090Y5378670I-127027J0D01*
G02X3564410Y5397480I5324J8651D01*
G01X3568700D01*
G03X3619520Y5448300I0J50820D01*
G01Y5600700D01*
G03X3568700Y5651520I-50820J0D01*
G01X3416300D01*
G03X3392700Y5645710I-4J-50821D01*
G02X3377820Y5654700I-4721J8996D01*
G01Y6318590D01*
X3460410Y6401180D01*
G37*
G36*
G01X4302520Y5406910D02*
G03X4351280Y5442230I-48011J117597D01*
G02X4369180Y5435650I7741J-6579D01*
G01Y5359350D01*
G02X4351280Y5352770I-10159J-1D01*
G03X4302520Y5388090I-96771J-82277D01*
G02Y5406910I3838J9410D01*
G37*
G36*
G01X8399070Y6274180D02*
X8477590D01*
X8814180Y5937590D01*
Y5859070D01*
G02X8796840Y5851890I-10159J5D01*
G01X8391890Y6256840D01*
G02X8399070Y6274180I7185J7181D01*
G37*
G36*
G01X8589570Y6401180D02*
X8604590D01*
X9068180Y5937590D01*
Y2888910D01*
X8913990Y2734720D01*
X8911430Y2735140D01*
G03X8890000Y2736870I-21412J-131641D01*
G03X8792880Y2694910I0J-133376D01*
G02X8775320Y2701870I-7401J6959D01*
G01Y3521130D01*
G02X8792880Y3528090I10159J1D01*
G03X8890000Y3486130I97120J91416D01*
G03X9023370Y3619500I0J133370D01*
G03X8965820Y3729220I-133366J0D01*
G01Y5969000D01*
G03X8943610Y6022610I-75806J0D01*
G01X8582390Y6383840D01*
G02X8589570Y6401180I7185J7181D01*
G37*
%LPC*%
G75*
G36*
G01X2468660Y2616230D02*
G03X2449840I-9410J-3838D01*
G02X2332250Y2537230I-117590J48015D01*
G02Y2791270I0J127020D01*
G02X2449840Y2712270I0J-127015D01*
G03X2468660I9410J3838D01*
G02X2586250Y2791270I117590J-48015D01*
G02Y2537230I0J-127020D01*
G02X2468660Y2616230I0J127015D01*
G37*
G36*
G01X4590970Y2548190D02*
X4700810Y2658030D01*
X4700490Y2660500D01*
G02X4699480Y2676500I126011J15986D01*
G02X4826500Y2549480I127020J0D01*
G02X4810500Y2550490I-14J127021D01*
G01X4808030Y2550810D01*
X4698190Y2440970D01*
X4698510Y2438500D01*
G02X4699520Y2422500I-126011J-15986D01*
G02X4572500Y2549520I-127020J0D01*
G02X4588500Y2548510I14J-127021D01*
G01X4590970Y2548190D01*
G37*
G36*
G01X3160160Y2647480D02*
G03X3141340I-9410J-3838D01*
G02X3023750Y2568480I-117590J48015D01*
G02Y2822520I0J127020D01*
G02X3141340Y2743520I0J-127015D01*
G03X3160160I9410J3838D01*
G02X3277750Y2822520I117590J-48015D01*
G02Y2568480I0J-127020D01*
G02X3160160Y2647480I0J127015D01*
G37*
G36*
G01X1418410Y2657730D02*
G03X1399590I-9410J-3838D01*
G02X1282000Y2578730I-117590J48015D01*
G02Y2832770I0J127020D01*
G02X1399590Y2753770I0J-127015D01*
G03X1418410I9410J3838D01*
G02X1536000Y2832770I117590J-48015D01*
G02Y2578730I0J-127020D01*
G02X1418410Y2657730I0J127015D01*
G37*
G36*
G01X898890Y5451110D02*
X1406890Y5959110D01*
G02X1460500Y5981320I53610J-53596D01*
G01X2730500D01*
G02X2784110Y5959110I0J-75806D01*
G01X2911110Y5832110D01*
G02X2933320Y5778500I-53596J-53610D01*
G01Y5397500D01*
G02X2911110Y5343890I-75806J0D01*
G01X2538690Y4971470D01*
X2539010Y4969000D01*
G02X2540020Y4953000I-126011J-15986D01*
G02X2461020Y4835410I-127015J0D01*
G03Y4816590I3838J-9410D01*
G02X2540020Y4699000I-48015J-117590D01*
G02X2285980I-127020J0D01*
G02X2364980Y4816590I127015J0D01*
G03Y4835410I-3838J9410D01*
G02Y5070590I48015J117590D01*
G03Y5089410I-3838J9410D01*
G02Y5324590I48015J117590D01*
G03Y5343410I-3838J9410D01*
G02X2285980Y5461000I48015J117590D01*
G02X2540020I127020J0D01*
G02X2461020Y5343410I-127015J0D01*
G03Y5324590I3838J-9410D01*
G02X2539950Y5211350I-48016J-117595D01*
G03X2557280Y5204510I10151J346D01*
G01X2781680Y5428910D01*
Y5747090D01*
X2699090Y5829680D01*
X1491910D01*
X1028320Y5366090D01*
Y4165910D01*
G02X1079520Y4064000I-75822J-101910D01*
G02X1000520Y3946410I-127015J0D01*
G03Y3927590I3838J-9410D01*
G02X1079520Y3810000I-48015J-117590D01*
G02X825480I-127020J0D01*
G02X904480Y3927590I127015J0D01*
G03Y3946410I-3838J9410D01*
G02X825480Y4064000I48015J117590D01*
G02X876680Y4165910I127022J0D01*
G01Y5397500D01*
G02X898890Y5451110I75806J0D01*
G37*
G54D16*
X3556000Y3175000D03*
X4318000D03*
X2726500Y998250D03*
X2201500Y1008750D03*
X1624250Y1024250D03*
X1135500Y1013750D03*
G54D17*
X6540500Y3683000D03*
X6032500D03*
X4826500Y2168500D03*
X4813500Y1420500D03*
X4559500Y1674500D03*
Y1166500D03*
G54D15*
X5414750Y1138750D03*
Y2154750D03*
X3838000Y1991500D03*
Y975500D03*
X3556000Y4191000D03*
X4318000D03*
X7091000Y1198000D03*
X3272500Y982750D03*
Y1998750D03*
X8382000Y2730500D03*
X7810500D03*
X2726500Y2014250D03*
X2201500Y2024750D03*
X1624250Y2040250D03*
X1135500Y2029750D03*
%LPD*%
G75*
G54D10*
X500000Y500000D03*
Y6500000D03*
X9500000Y500000D03*
Y6500000D03*
G54D11*
X1135500Y1013750D03*
Y2029750D03*
X1624250Y1024250D03*
Y2040250D03*
X2201500Y1008750D03*
X2726500Y998250D03*
X2201500Y2024750D03*
X2726500Y2014250D03*
X3272500Y982750D03*
Y1998750D03*
X3838000Y975500D03*
Y1991500D03*
X3556000Y3175000D03*
Y4191000D03*
X4318000Y3175000D03*
Y4191000D03*
X5414750Y1138750D03*
Y2154750D03*
X6075000Y1198000D03*
X7091000D03*
X7810500Y2730500D03*
Y3746500D03*
X8382000Y2730500D03*
Y3746500D03*
X8890000Y2603500D03*
Y3619500D03*
G54D12*
X500000Y2992000D03*
Y3246000D03*
Y3500000D03*
X952500Y3810000D03*
Y4064000D03*
X1282000Y2705750D03*
X1536000D03*
X1651000Y4699000D03*
Y4953000D03*
Y5207000D03*
X2332250Y2664250D03*
X2586250D03*
X2413000Y4699000D03*
Y4953000D03*
Y5207000D03*
Y5461000D03*
X3023750Y2695500D03*
X3277750D03*
X3492500Y4762500D03*
Y5016500D03*
Y5270500D03*
X4254500Y4762500D03*
Y5016500D03*
Y5270500D03*
Y5524500D03*
X4559500Y1166500D03*
Y1674500D03*
X4813500Y1420500D03*
X4826500Y2168500D03*
X4572500Y2422500D03*
X4826500Y2676500D03*
X5270500Y4762500D03*
Y5016500D03*
Y5270500D03*
X6286500Y3429000D03*
X6540500Y3683000D03*
X6032500D03*
Y4762500D03*
Y5016500D03*
Y5270500D03*
Y5524500D03*
X7493000Y4699000D03*
Y4953000D03*
Y5207000D03*
X8255000Y4699000D03*
Y4953000D03*
Y5207000D03*
Y5461000D03*
X9500000Y3246000D03*
Y3500000D03*
G54D13*
X1651000Y5461000D03*
X3492500Y5524500D03*
X5270500D03*
X7493000Y5461000D03*
G54D14*
G01X1009750Y1013750D02*
X1135500D01*
G01X500000Y3126600D02*
Y3246000D01*
G01D02*
Y3365400D01*
G01Y3246000D02*
X619400D01*
G01X1565750Y3978750D02*
Y3915250D01*
X642500Y2992000D01*
X500000D01*
G01X2413000Y4953000D02*
X2857500Y5397500D01*
Y5778500D01*
X2730500Y5905500D01*
X1460500D01*
X952500Y5397500D01*
Y4064000D01*
G01X1135500Y888000D02*
Y1013750D01*
G01D02*
Y1139500D01*
G01Y1013750D02*
X1261250D01*
G01X1624250Y898500D02*
Y1024250D01*
G01D02*
Y1150000D01*
G01X1498500Y1024250D02*
X1624250D01*
G01D02*
X1750000D01*
G01X1651000Y4699000D02*
X1565750Y4613750D01*
Y3978750D01*
G01X3333750Y4413250D02*
X2899250Y3978750D01*
X1565750D01*
G01X2201500Y883000D02*
Y1008750D01*
G01D02*
Y1134500D01*
G01X2075750Y1008750D02*
X2201500D01*
G01D02*
X2327250D01*
G01X2600750Y998250D02*
X2726500D01*
G01D02*
X2984500Y1256250D01*
G01X2726500Y872500D02*
Y998250D01*
G01D02*
Y1124000D01*
G01Y998250D02*
X2852250D01*
G01X2984500Y1256250D02*
Y2032000D01*
X3556000Y2603500D01*
G01X3492500Y4762500D02*
Y4572000D01*
X3333750Y4413250D01*
G01X5270500Y4762500D02*
X5524500D01*
X5588000Y4826000D01*
Y5080000D01*
X5524500Y5143500D01*
X4953000D01*
X4222750Y4413250D01*
X3333750D01*
G01X3492500Y5270500D02*
X3302000Y5461000D01*
Y6350000D01*
X3429000Y6477000D01*
X8636000D01*
X9144000Y5969000D01*
Y2857500D01*
X8890000Y2603500D01*
G01X3556000D02*
Y3175000D01*
G01X4318000D02*
X3556000D01*
G01D02*
Y3300750D01*
G01X3430250Y3175000D02*
X3556000D01*
G01X4826500Y2676500D02*
X4572500Y2422500D01*
G01X4826000Y3175000D02*
X4318000D01*
G01X5016500Y5016500D02*
X4953000Y4953000D01*
Y3302000D01*
X4826000Y3175000D01*
G01X4318000Y3049250D02*
Y3175000D01*
G01D02*
Y3300750D01*
G01X8890000Y3619500D02*
Y5969000D01*
X8509000Y6350000D01*
X4635500D01*
X4445000Y6159500D01*
Y5207000D01*
X4254500Y5016500D01*
G01X5270500Y4897100D02*
Y5016500D01*
G01D02*
X5016500D01*
G01X5270500D02*
X5389900D01*
G01X8255000Y4953000D02*
X8763000Y5461000D01*
Y5778500D01*
X8318500Y6223000D01*
X5270500D01*
X5016500Y5969000D01*
Y5524500D01*
X5270500Y5270500D01*
G01X6075000Y1198000D02*
Y2138000D01*
X6350000Y2413000D01*
G01X6286500Y3429000D02*
Y2476500D01*
X6350000Y2413000D01*
G01D02*
X8509000D01*
X8699500Y2603500D01*
Y3683000D01*
X8382000Y4000500D01*
X7429500D01*
X7112000Y4318000D01*
Y4572000D01*
X7493000Y4953000D01*
G01X7810500Y3746500D02*
X7302500D01*
X6032500Y5016500D01*
G01X8382000Y3746500D02*
X7810500D01*
G01X9500000Y3126600D02*
Y3246000D01*
G01D02*
Y3365400D01*
G01X9380600Y3246000D02*
X9500000D01*
M02*
