G04 ================== begin FILE IDENTIFICATION RECORD ==================*
G04 Layout Name:  C:/USERS/USER/DESKTOP/WORK/0731/allegro/CHOPPING_WAVE.brd*
G04 Film Name:    Design*
G04 File Format:  Gerber RS274X*
G04 File Origin:  Cadence Allegro 17.2-S052*
G04 Origin Date:  Wed Jul 31 13:17:38 2019*
G04 *
G04 Layer:  BOARD GEOMETRY/DIMENSION*
G04 Layer:  VIA CLASS/BOTTOM*
G04 Layer:  VIA CLASS/TOP*
G04 Layer:  ROUTE KEEPOUT/ALL*
G04 Layer:  ROUTE KEEPIN/ALL*
G04 Layer:  REF DES/SILKSCREEN_TOP*
G04 Layer:  REF DES/SILKSCREEN_BOTTOM*
G04 Layer:  PIN/BOTTOM*
G04 Layer:  PIN/TOP*
G04 Layer:  PACKAGE KEEPIN/ALL*
G04 Layer:  PACKAGE GEOMETRY/PIN_NUMBER*
G04 Layer:  PACKAGE GEOMETRY/SILKSCREEN_TOP*
G04 Layer:  PACKAGE GEOMETRY/SILKSCREEN_BOTTOM*
G04 Layer:  PACKAGE GEOMETRY/SOLDERMASK_TOP*
G04 Layer:  PACKAGE GEOMETRY/SOLDERMASK_BOTTOM*
G04 Layer:  PACKAGE GEOMETRY/PASTEMASK_TOP*
G04 Layer:  PACKAGE GEOMETRY/PASTEMASK_BOTTOM*
G04 Layer:  ETCH/BOTTOM*
G04 Layer:  ETCH/TOP*
G04 Layer:  BOARD GEOMETRY/OUTLINE*
G04 Layer:  BOARD GEOMETRY/SILKSCREEN_TOP*
G04 Layer:  BOARD GEOMETRY/SILKSCREEN_BOTTOM*
G04 Layer:  BOARD GEOMETRY/SOLDERMASK_TOP*
G04 Layer:  BOARD GEOMETRY/SOLDERMASK_BOTTOM*
G04 Layer:  BOARD GEOMETRY/DESIGN_OUTLINE*
G04 *
G04 Offset:    (0.0000 0.0000)*
G04 Mirror:    No*
G04 Mode:      Positive*
G04 Rotation:  0*
G04 FullContactRelief:  No*
G04 UndefLineWidth:     0.0000*
G04 ================== end FILE IDENTIFICATION RECORD ====================*
%FSLAX25Y25*MOMM*%
%IR0*IPPOS*OFA0.00000B0.00000*MIA0B0*SFA1.00000B1.00000*%
%ADD10C,.635*%
%ADD12C,1.524*%
%ADD11C,1.651*%
%ADD13R,1.524X1.524*%
%ADD14C,.5*%
%ADD16C,2.4134*%
%ADD17C,2.5404*%
%ADD15C,2.6674*%
G75*
%LPD*%
G75*
G36*
G01X8744750Y6500000D02*
X9245980D01*
Y6245980D01*
X9500000D01*
Y3627020D01*
G03Y3372980I0J-127020D01*
G01Y3360320D01*
G03Y3131680I0J-114320D01*
G01Y754020D01*
X9245980D01*
Y500000D01*
X754020D01*
Y754020D01*
X500000D01*
Y2864980D01*
G03X601910Y2916180I0J127022D01*
G01X642500D01*
G03X696110Y2938390I0J75806D01*
G01X1619360Y3861640D01*
G03X1639800Y3898940I-53602J53624D01*
G01X1640670Y3902930D01*
X2899250D01*
G03X2952860Y3925140I0J75806D01*
G01X3365160Y4337430D01*
X4222750D01*
G03X4276360Y4359640I0J75806D01*
G01X4984410Y5067680D01*
X5152970D01*
G02X5162570Y5054170I6J-10161D01*
G03X5156180Y5016500I107927J-37685D01*
G03X5384820I114320J0D01*
G03X5378430Y5054170I-114317J-15D01*
G02X5388030Y5067680I9594J3349D01*
G01X5493090D01*
X5512180Y5048590D01*
Y4857410D01*
X5493090Y4838320D01*
X5372410D01*
G03X5270500Y4889520I-101910J-75822D01*
G03Y4635480I0J-127020D01*
G03X5372410Y4686680I0J127022D01*
G01X5524500D01*
G03X5578110Y4708890I0J75806D01*
G01X5641610Y4772390D01*
G03X5663820Y4826000I-53596J53610D01*
G01Y5080000D01*
G03X5641610Y5133610I-75806J0D01*
G01X5578110Y5197110D01*
G03X5524500Y5219320I-53610J-53596D01*
G01X5401400D01*
G02X5391710Y5232520I4J10159D01*
G03X5397520Y5270500I-121211J37977D01*
G03X5337090Y5378670I-127027J0D01*
G02X5342410Y5397480I5324J8651D01*
G01X5346700D01*
G03X5397520Y5448300I0J50820D01*
G01Y5600700D01*
G03X5346700Y5651520I-50820J0D01*
G01X5194300D01*
G03X5143480Y5600700I0J-50820D01*
G01Y5529270D01*
G02X5126140Y5522090I-10159J5D01*
G01X5092320Y5555910D01*
Y5937590D01*
X5301910Y6147180D01*
X8287090D01*
X8687180Y5747090D01*
Y5492410D01*
X8399280Y5204510D01*
G02X8381950Y5211350I-7179J7186D01*
G03X8303020Y5324590I-126946J-4355D01*
G02Y5343410I3838J9410D01*
G03X8382020Y5461000I-48015J117590D01*
G03X8127980I-127020J0D01*
G03X8206980Y5343410I127015J0D01*
G02Y5324590I-3838J-9410D01*
G03Y5089410I48015J-117590D01*
G02Y5070590I-3838J-9410D01*
G03Y4835410I48015J-117590D01*
G02Y4816590I-3838J-9410D01*
G03X8127980Y4699000I48015J-117590D01*
G03X8382020I127020J0D01*
G03X8303020Y4816590I-127015J0D01*
G02Y4835410I3838J9410D01*
G03X8382020Y4953000I-48015J117590D01*
G03X8381010Y4969000I-127021J14D01*
G01X8380690Y4971470D01*
X8796840Y5387610D01*
G02X8814180Y5380430I7181J-7185D01*
G01Y3729220D01*
G03X8788140Y3705600I75804J-109734D01*
G02X8770830Y3708710I-7756J6559D01*
G03X8753110Y3736610I-71323J-25722D01*
G01X8435610Y4054110D01*
G03X8382000Y4076320I-53610J-53596D01*
G01X7460910D01*
X7187820Y4349410D01*
Y4540590D01*
X7348720Y4701490D01*
G02X7366050Y4694650I7179J-7186D01*
G03X7493000Y4571980I126950J4355D01*
G03X7620020Y4699000I0J127020D01*
G03X7541020Y4816590I-127015J0D01*
G02Y4835410I3838J9410D01*
G03Y5070590I-48015J117590D01*
G02Y5089410I3838J9410D01*
G03X7620020Y5207000I-48015J117590D01*
G03X7559590Y5315170I-127027J0D01*
G02X7564910Y5333980I5324J8651D01*
G01X7569200D01*
G03X7620020Y5384800I0J50820D01*
G01Y5537200D01*
G03X7569200Y5588020I-50820J0D01*
G01X7416800D01*
G03X7365980Y5537200I0J-50820D01*
G01Y5384800D01*
G03X7416800Y5333980I50820J0D01*
G01X7421090D01*
G02X7426410Y5315170I-4J-10159D01*
G03X7365980Y5207000I66597J-108170D01*
G03X7444980Y5089410I127015J0D01*
G02Y5070590I-3838J-9410D01*
G03X7365980Y4953000I48015J-117590D01*
G03X7366990Y4937000I127021J-14D01*
G01X7367310Y4934530D01*
X7058390Y4625610D01*
G03X7036180Y4572000I53596J-53610D01*
G01Y4318000D01*
G03X7058390Y4264390I75806J0D01*
G01X7375890Y3946890D01*
G03X7429500Y3924680I53610J53596D01*
G01X8350590D01*
X8378460Y3896810D01*
G02X8372040Y3879500I-7184J-7181D01*
G03X8272280Y3822320I9964J-132998D01*
G01X7920220D01*
G03X7700780I-109720J-75816D01*
G01X7333910D01*
X6158190Y4998030D01*
X6158510Y5000500D01*
G03X6159520Y5016500I-126011J15986D01*
G03X6080520Y5134090I-127015J0D01*
G02Y5152910I3838J9410D01*
G03Y5388090I-48015J117590D01*
G02Y5406910I3838J9410D01*
G03X6159520Y5524500I-48015J117590D01*
G03X5905480I-127020J0D01*
G03X5984480Y5406910I127015J0D01*
G02Y5388090I-3838J-9410D01*
G03Y5152910I48015J-117590D01*
G02Y5134090I-3838J-9410D01*
G03Y4898910I48015J-117590D01*
G02Y4880090I-3838J-9410D01*
G03X5905480Y4762500I48015J-117590D01*
G03X6032500Y4635480I127020J0D01*
G03X6159450Y4758150I0J127025D01*
G02X6176780Y4764990I10151J-346D01*
G01X7248890Y3692890D01*
G03X7302500Y3670680I53610J53596D01*
G01X7700780D01*
G03X7920220I109720J75816D01*
G01X8272280D01*
G03X8382000Y3613130I109720J75816D01*
G03X8515000Y3736540I0J133373D01*
G02X8532310Y3742960I10129J-764D01*
G01X8623680Y3651590D01*
Y2634910D01*
X8477590Y2488820D01*
X6381410D01*
X6362320Y2507910D01*
Y3327090D01*
G03X6413520Y3429000I-75822J101910D01*
G03X6159480I-127020J0D01*
G03X6210680Y3327090I127022J0D01*
G01Y2476500D01*
G03X6232890Y2422890I75806J0D01*
G01X6242770Y2413000D01*
X6021390Y2191610D01*
G03X5999180Y2138000I53596J-53610D01*
G01Y1307720D01*
G03X5941630Y1198000I75816J-109720D01*
G03X6208370I133370J0D01*
G03X6150820Y1307720I-133366J0D01*
G01Y2106590D01*
X6381410Y2337180D01*
X8509000D01*
G03X8562610Y2359390I0J75806D01*
G01X8753110Y2549890D01*
G03X8757720Y2554930I-53583J53640D01*
G02X8766330Y2553570I3898J-3258D01*
G03X8890000Y2470130I123670J49928D01*
G03X9023370Y2603500I0J133370D01*
G03X9021640Y2624930I-133371J18D01*
G01X9021220Y2627490D01*
X9197610Y2803890D01*
G03X9219820Y2857500I-53596J53610D01*
G01Y5969000D01*
G03X9197610Y6022610I-75806J0D01*
G01X8737570Y6482660D01*
G02X8744750Y6500000I7185J7181D01*
G37*
G36*
G01X754020D02*
X3320250D01*
G02X3327430Y6482660I-5J-10159D01*
G01X3248390Y6403610D01*
G03X3226180Y6350000I53596J-53610D01*
G01Y5461000D01*
G03X3248390Y5407390I75806J0D01*
G01X3366810Y5288970D01*
X3366490Y5286500D01*
G03X3365480Y5270500I126011J-15986D01*
G03X3444480Y5152910I127015J0D01*
G02Y5134090I-3838J-9410D01*
G03Y4898910I48015J-117590D01*
G02Y4880090I-3838J-9410D01*
G03X3365480Y4762500I48015J-117590D01*
G03X3416680Y4660590I127022J0D01*
G01Y4603410D01*
X2867840Y4054570D01*
X1641570D01*
Y4561820D01*
G02X1651680Y4571980I10159J1D01*
G03X1778020Y4699000I-682J127020D01*
G03X1699020Y4816590I-127015J0D01*
G02Y4835410I3838J9410D01*
G03Y5070590I-48015J117590D01*
G02Y5089410I3838J9410D01*
G03X1778020Y5207000I-48015J117590D01*
G03X1717590Y5315170I-127027J0D01*
G02X1722910Y5333980I5324J8651D01*
G01X1727200D01*
G03X1778020Y5384800I0J50820D01*
G01Y5537200D01*
G03X1727200Y5588020I-50820J0D01*
G01X1574800D01*
G03X1523980Y5537200I0J-50820D01*
G01Y5384800D01*
G03X1574800Y5333980I50820J0D01*
G01X1579090D01*
G02X1584410Y5315170I-4J-10159D01*
G03X1523980Y5207000I66597J-108170D01*
G03X1602980Y5089410I127015J0D01*
G02Y5070590I-3838J-9410D01*
G03Y4835410I48015J-117590D01*
G02Y4816590I-3838J-9410D01*
G03X1523980Y4699000I48015J-117590D01*
G03X1524990Y4683000I127021J-14D01*
G01X1525310Y4680530D01*
X1512140Y4667360D01*
G03X1489930Y4613750I53596J-53610D01*
G01Y3946660D01*
X611090Y3067820D01*
X601940D01*
X600410Y3069790D01*
G03X500000Y3119020I-100410J-77784D01*
G01Y3131680D01*
G03Y3360320I0J114320D01*
G01Y3372980D01*
G03Y3627020I0J127020D01*
G01Y6245980D01*
X754020D01*
Y6500000D01*
G37*
G36*
G01X3460410Y6401180D02*
X4554930D01*
G02X4562110Y6383840I-5J-10159D01*
G01X4391390Y6213110D01*
G03X4369180Y6159500I53596J-53610D01*
G01Y5613350D01*
G02X4351280Y5606770I-10159J-1D01*
G03X4254500Y5651520I-96780J-82277D01*
G03X4127480Y5524500I0J-127020D01*
G03X4206480Y5406910I127015J0D01*
G02Y5388090I-3838J-9410D01*
G03Y5152910I48015J-117590D01*
G02Y5134090I-3838J-9410D01*
G03Y4898910I48015J-117590D01*
G02Y4880090I-3838J-9410D01*
G03X4127480Y4762500I48015J-117590D01*
G03X4381520I127020J0D01*
G03X4302520Y4880090I-127015J0D01*
G02Y4898910I3838J9410D01*
G03X4381520Y5016500I-48015J117590D01*
G03X4380510Y5032500I-127021J14D01*
G01X4380190Y5034970D01*
X4498610Y5153390D01*
G03X4520820Y5207000I-53596J53610D01*
G01Y6128090D01*
X4666910Y6274180D01*
X5189930D01*
G02X5197110Y6256840I-5J-10159D01*
G01X4962890Y6022610D01*
G03X4940680Y5969000I53596J-53610D01*
G01Y5524500D01*
G03X4962890Y5470890I75806J0D01*
G01X5144810Y5288970D01*
X5144490Y5286500D01*
G03X5143480Y5270500I126011J-15986D01*
G03X5149290Y5232520I127021J-3D01*
G02X5139600Y5219320I-9694J-3041D01*
G01X4953000D01*
G03X4899390Y5197110I0J-75806D01*
G01X4191340Y4489070D01*
X3541320D01*
G02X3534140Y4506410I5J10159D01*
G01X3546110Y4518390D01*
G03X3568320Y4572000I-53596J53610D01*
G01Y4660590D01*
G03X3619520Y4762500I-75822J101910D01*
G03X3540520Y4880090I-127015J0D01*
G02Y4898910I3838J9410D01*
G03Y5134090I-48015J117590D01*
G02Y5152910I3838J9410D01*
G03X3619520Y5270500I-48015J117590D01*
G03X3559090Y5378670I-127027J0D01*
G02X3564410Y5397480I5324J8651D01*
G01X3568700D01*
G03X3619520Y5448300I0J50820D01*
G01Y5600700D01*
G03X3568700Y5651520I-50820J0D01*
G01X3416300D01*
G03X3392700Y5645710I-4J-50821D01*
G02X3377820Y5654700I-4721J8996D01*
G01Y6318590D01*
X3460410Y6401180D01*
G37*
G36*
G01X4302520Y5406910D02*
G03X4351280Y5442230I-48011J117597D01*
G02X4369180Y5435650I7741J-6579D01*
G01Y5359350D01*
G02X4351280Y5352770I-10159J-1D01*
G03X4302520Y5388090I-96771J-82277D01*
G02Y5406910I3838J9410D01*
G37*
G36*
G01X8399070Y6274180D02*
X8477590D01*
X8814180Y5937590D01*
Y5859070D01*
G02X8796840Y5851890I-10159J5D01*
G01X8391890Y6256840D01*
G02X8399070Y6274180I7185J7181D01*
G37*
G36*
G01X8589570Y6401180D02*
X8604590D01*
X9068180Y5937590D01*
Y2888910D01*
X8913990Y2734720D01*
X8911430Y2735140D01*
G03X8890000Y2736870I-21412J-131641D01*
G03X8792880Y2694910I0J-133376D01*
G02X8775320Y2701870I-7401J6959D01*
G01Y3521130D01*
G02X8792880Y3528090I10159J1D01*
G03X8890000Y3486130I97120J91416D01*
G03X9023370Y3619500I0J133370D01*
G03X8965820Y3729220I-133366J0D01*
G01Y5969000D01*
G03X8943610Y6022610I-75806J0D01*
G01X8582390Y6383840D01*
G02X8589570Y6401180I7185J7181D01*
G37*
%LPC*%
G75*
G36*
G01X2468660Y2616230D02*
G03X2449840I-9410J-3838D01*
G02X2332250Y2537230I-117590J48015D01*
G02Y2791270I0J127020D01*
G02X2449840Y2712270I0J-127015D01*
G03X2468660I9410J3838D01*
G02X2586250Y2791270I117590J-48015D01*
G02Y2537230I0J-127020D01*
G02X2468660Y2616230I0J127015D01*
G37*
G36*
G01X4590970Y2548190D02*
X4700810Y2658030D01*
X4700490Y2660500D01*
G02X4699480Y2676500I126011J15986D01*
G02X4826500Y2549480I127020J0D01*
G02X4810500Y2550490I-14J127021D01*
G01X4808030Y2550810D01*
X4698190Y2440970D01*
X4698510Y2438500D01*
G02X4699520Y2422500I-126011J-15986D01*
G02X4572500Y2549520I-127020J0D01*
G02X4588500Y2548510I14J-127021D01*
G01X4590970Y2548190D01*
G37*
G36*
G01X3160160Y2647480D02*
G03X3141340I-9410J-3838D01*
G02X3023750Y2568480I-117590J48015D01*
G02Y2822520I0J127020D01*
G02X3141340Y2743520I0J-127015D01*
G03X3160160I9410J3838D01*
G02X3277750Y2822520I117590J-48015D01*
G02Y2568480I0J-127020D01*
G02X3160160Y2647480I0J127015D01*
G37*
G36*
G01X1418410Y2657730D02*
G03X1399590I-9410J-3838D01*
G02X1282000Y2578730I-117590J48015D01*
G02Y2832770I0J127020D01*
G02X1399590Y2753770I0J-127015D01*
G03X1418410I9410J3838D01*
G02X1536000Y2832770I117590J-48015D01*
G02Y2578730I0J-127020D01*
G02X1418410Y2657730I0J127015D01*
G37*
G36*
G01X898890Y5451110D02*
X1406890Y5959110D01*
G02X1460500Y5981320I53610J-53596D01*
G01X2730500D01*
G02X2784110Y5959110I0J-75806D01*
G01X2911110Y5832110D01*
G02X2933320Y5778500I-53596J-53610D01*
G01Y5397500D01*
G02X2911110Y5343890I-75806J0D01*
G01X2538690Y4971470D01*
X2539010Y4969000D01*
G02X2540020Y4953000I-126011J-15986D01*
G02X2461020Y4835410I-127015J0D01*
G03Y4816590I3838J-9410D01*
G02X2540020Y4699000I-48015J-117590D01*
G02X2285980I-127020J0D01*
G02X2364980Y4816590I127015J0D01*
G03Y4835410I-3838J9410D01*
G02Y5070590I48015J117590D01*
G03Y5089410I-3838J9410D01*
G02Y5324590I48015J117590D01*
G03Y5343410I-3838J9410D01*
G02X2285980Y5461000I48015J117590D01*
G02X2540020I127020J0D01*
G02X2461020Y5343410I-127015J0D01*
G03Y5324590I3838J-9410D01*
G02X2539950Y5211350I-48016J-117595D01*
G03X2557280Y5204510I10151J346D01*
G01X2781680Y5428910D01*
Y5747090D01*
X2699090Y5829680D01*
X1491910D01*
X1028320Y5366090D01*
Y4165910D01*
G02X1079520Y4064000I-75822J-101910D01*
G02X1000520Y3946410I-127015J0D01*
G03Y3927590I3838J-9410D01*
G02X1079520Y3810000I-48015J-117590D01*
G02X825480I-127020J0D01*
G02X904480Y3927590I127015J0D01*
G03Y3946410I-3838J9410D01*
G02X825480Y4064000I48015J117590D01*
G02X876680Y4165910I127022J0D01*
G01Y5397500D01*
G02X898890Y5451110I75806J0D01*
G37*
G54D16*
X3556000Y3175000D03*
X4318000D03*
X2726500Y998250D03*
X2201500Y1008750D03*
X1624250Y1024250D03*
X1135500Y1013750D03*
G54D17*
X6540500Y3683000D03*
X6032500D03*
X4826500Y2168500D03*
X4813500Y1420500D03*
X4559500Y1674500D03*
Y1166500D03*
G54D15*
X5414750Y1138750D03*
Y2154750D03*
X3838000Y1991500D03*
Y975500D03*
X3556000Y4191000D03*
X4318000D03*
X7091000Y1198000D03*
X3272500Y982750D03*
Y1998750D03*
X8382000Y2730500D03*
X7810500D03*
X2726500Y2014250D03*
X2201500Y2024750D03*
X1624250Y2040250D03*
X1135500Y2029750D03*
%LPD*%
G75*
G36*
G01X246000Y246000D02*
Y754000D01*
X754000D01*
Y246000D01*
X246000D01*
G37*
G36*
G01Y6246000D02*
Y6754000D01*
X754000D01*
Y6246000D01*
X246000D01*
G37*
G36*
G01X9246000Y246000D02*
Y754000D01*
X9754000D01*
Y246000D01*
X9246000D01*
G37*
G36*
G01Y6246000D02*
Y6754000D01*
X9754000D01*
Y6246000D01*
X9246000D01*
G37*
G54D10*
X500000Y500000D03*
D03*
Y6500000D03*
D03*
X9500000Y500000D03*
D03*
Y6500000D03*
D03*
G54D11*
X1135500Y1013750D03*
D03*
Y2029750D03*
D03*
X1624250Y1024250D03*
D03*
Y2040250D03*
D03*
X2201500Y1008750D03*
D03*
X2726500Y998250D03*
D03*
X2201500Y2024750D03*
D03*
X2726500Y2014250D03*
D03*
X3272500Y982750D03*
D03*
Y1998750D03*
D03*
X3838000Y975500D03*
D03*
Y1991500D03*
D03*
X3556000Y3175000D03*
D03*
Y4191000D03*
D03*
X4318000Y3175000D03*
D03*
Y4191000D03*
D03*
X5414750Y1138750D03*
D03*
Y2154750D03*
D03*
X6075000Y1198000D03*
D03*
X7091000D03*
D03*
X7810500Y2730500D03*
D03*
Y3746500D03*
D03*
X8382000Y2730500D03*
D03*
Y3746500D03*
D03*
X8890000Y2603500D03*
D03*
Y3619500D03*
D03*
G54D12*
X500000Y2992000D03*
D03*
Y3246000D03*
D03*
Y3500000D03*
D03*
X952500Y3810000D03*
D03*
Y4064000D03*
D03*
X1282000Y2705750D03*
D03*
X1536000D03*
D03*
X1651000Y4699000D03*
D03*
Y4953000D03*
D03*
Y5207000D03*
D03*
X2332250Y2664250D03*
D03*
X2586250D03*
D03*
X2413000Y4699000D03*
D03*
Y4953000D03*
D03*
Y5207000D03*
D03*
Y5461000D03*
D03*
X3023750Y2695500D03*
D03*
X3277750D03*
D03*
X3492500Y4762500D03*
D03*
Y5016500D03*
D03*
Y5270500D03*
D03*
X4254500Y4762500D03*
D03*
Y5016500D03*
D03*
Y5270500D03*
D03*
Y5524500D03*
D03*
X4559500Y1166500D03*
D03*
Y1674500D03*
D03*
X4813500Y1420500D03*
D03*
X4826500Y2168500D03*
D03*
X4572500Y2422500D03*
D03*
X4826500Y2676500D03*
D03*
X5270500Y4762500D03*
D03*
Y5016500D03*
D03*
Y5270500D03*
D03*
X6286500Y3429000D03*
D03*
X6540500Y3683000D03*
D03*
X6032500D03*
D03*
Y4762500D03*
D03*
Y5016500D03*
D03*
Y5270500D03*
D03*
Y5524500D03*
D03*
X7493000Y4699000D03*
D03*
Y4953000D03*
D03*
Y5207000D03*
D03*
X8255000Y4699000D03*
D03*
Y4953000D03*
D03*
Y5207000D03*
D03*
Y5461000D03*
D03*
X9500000Y3246000D03*
D03*
Y3500000D03*
D03*
G54D13*
X1651000Y5461000D03*
D03*
X3492500Y5524500D03*
D03*
X5270500D03*
D03*
X7493000Y5461000D03*
D03*
G54D14*
G01X500000Y3246000D02*
X325000D01*
X254000Y3175000D01*
Y1206500D01*
X444500Y1016000D01*
X1012990D01*
X1015240Y1013750D01*
X1135500D01*
G01X1009750D02*
X1135500D01*
G01X500000Y3126600D02*
Y3246000D01*
G01D02*
Y3365400D01*
G01Y3246000D02*
X619400D01*
G01X952500Y3810000D02*
Y3035250D01*
X1282000Y2705750D01*
G01X1565750Y3978750D02*
Y3915250D01*
X642500Y2992000D01*
X500000D01*
G01X2413000Y4953000D02*
X2857500Y5397500D01*
Y5778500D01*
X2730500Y5905500D01*
X1460500D01*
X952500Y5397500D01*
Y4064000D01*
G01X500000Y3500000D02*
Y3738500D01*
X580540Y3819040D01*
Y5406540D01*
X1270000Y6096000D01*
X2747950D01*
G01X1624250Y1024250D02*
X1266260D01*
X1255760Y1013750D01*
X1135500D01*
G01X2201500Y1008750D02*
X1760010D01*
X1744510Y1024250D01*
X1624250D01*
G01X1135500Y888000D02*
Y1013750D01*
G01D02*
Y1139500D01*
G01Y1013750D02*
X1261250D01*
G01X1624250Y898500D02*
Y1024250D01*
G01D02*
Y1150000D01*
G01X1498500Y1024250D02*
X1624250D01*
G01D02*
X1750000D01*
G01X1135500Y2029750D02*
Y2559250D01*
X1282000Y2705750D01*
G01X1624250Y2040250D02*
X1536000Y2705750D01*
G01D02*
X2332250Y2664250D01*
G01X3838000Y1991500D02*
Y3464500D01*
X3683000Y3619500D01*
X1651000D01*
X1397000Y3873500D01*
Y5157000D01*
X1447000Y5207000D01*
X1651000D01*
G01Y4699000D02*
X1565750Y4613750D01*
Y3978750D01*
G01X3333750Y4413250D02*
X2899250Y3978750D01*
X1565750D01*
G01X1651000Y4953000D02*
X1524000Y4826000D01*
Y4508500D01*
X1841500Y4191000D01*
X3556000D01*
G01X2726500Y998250D02*
X2332260D01*
X2321760Y1008750D01*
X2201500D01*
G01Y883000D02*
Y1008750D01*
G01D02*
Y1134500D01*
G01X2075750Y1008750D02*
X2201500D01*
G01D02*
X2327250D01*
G01X2600750Y998250D02*
X2726500D01*
G01X2201500Y2024750D02*
X2586250Y2664250D01*
G01X3023750Y2695500D02*
X2586250Y2664250D01*
G01X4826500Y2676500D02*
X4582000Y2921000D01*
X4177500D01*
X4127500Y2971000D01*
Y2984500D01*
X4000500Y3111500D01*
Y4064000D01*
X3619500Y4445000D01*
X2921000D01*
X2413000Y4953000D01*
G01X2747950Y6096000D02*
Y5428050D01*
X2526900Y5207000D01*
X2413000D01*
G01X2769250Y395250D02*
Y795250D01*
G01X2884490Y661910D02*
Y395250D01*
G01Y768580D02*
X2881160Y775240D01*
Y788580D01*
X2884490Y795250D01*
X2887820Y788580D01*
Y775240D01*
X2884490Y768580D01*
G01X2971400Y395250D02*
Y661910D01*
G01Y595240D02*
X2978060Y628580D01*
X2988060Y655240D01*
X3001400Y661910D01*
X3013060Y655240D01*
X3023060Y628580D01*
X3028060Y581910D01*
Y395250D01*
G01X3089970Y575250D02*
X3143300D01*
X3138300Y621920D01*
X3129970Y648580D01*
X3118300Y661910D01*
X3106640Y655240D01*
X3096640Y635250D01*
X3089970Y588580D01*
X3086640Y548570D01*
Y508580D01*
X3089970Y468580D01*
X3098300Y428580D01*
X3108300Y401920D01*
X3119970Y395250D01*
X3131640Y408580D01*
X3143300Y448570D01*
G01X3303780Y661910D02*
X3323780Y395250D01*
X3345450Y661910D01*
X3367120Y395250D01*
X3387120Y661910D01*
G01X3460690D02*
Y395250D01*
G01Y768580D02*
X3457360Y775240D01*
Y788580D01*
X3460690Y795250D01*
X3464020Y788580D01*
Y775240D01*
X3460690Y768580D01*
G01X3605930Y795250D02*
Y395250D01*
G01Y455240D02*
X3599260Y421910D01*
X3589260Y401920D01*
X3577600Y395250D01*
X3564260Y408580D01*
X3554260Y441910D01*
X3547600Y481910D01*
X3545930Y528580D01*
X3547600Y575250D01*
X3554260Y615250D01*
X3564260Y648580D01*
X3577600Y661910D01*
X3589260Y655240D01*
X3597600Y641910D01*
X3605930Y615250D01*
G01X3691170Y795250D02*
Y395250D01*
G01X3667840Y661910D02*
X3714500D01*
G01X3778080Y395250D02*
Y795250D01*
G01Y601920D02*
X3786410Y635250D01*
X3794740Y655240D01*
X3808080Y661910D01*
X3818080Y655240D01*
X3829740Y628580D01*
X3834740Y588580D01*
Y395250D01*
G01X4036890Y381920D02*
X4033560Y388580D01*
Y401920D01*
X4036890Y408580D01*
X4040220Y401920D01*
Y388580D01*
X4036890Y381920D01*
G01Y561910D02*
X4033560Y568580D01*
Y581910D01*
X4036890Y588580D01*
X4040220Y581910D01*
Y568580D01*
X4036890Y561910D01*
G01X4267370Y795250D02*
X4254030Y781920D01*
X4244040Y748580D01*
X4237370Y708590D01*
X4232370Y655240D01*
X4230700Y595240D01*
X4232370Y535240D01*
X4237370Y481910D01*
X4244040Y441910D01*
X4254030Y408580D01*
X4267370Y395250D01*
X4280700Y408580D01*
X4290700Y441910D01*
X4297370Y481910D01*
X4302370Y535240D01*
X4304040Y595240D01*
X4302370Y655240D01*
X4297370Y708590D01*
X4290700Y748580D01*
X4280700Y781920D01*
X4267370Y795250D01*
G01X4382610Y381920D02*
X4379280Y388580D01*
Y401920D01*
X4382610Y408580D01*
X4385940Y401920D01*
Y388580D01*
X4382610Y381920D01*
G01X4461180Y455240D02*
X4471180Y421910D01*
X4482850Y401920D01*
X4497850Y395250D01*
X4512850Y408580D01*
X4524520Y435240D01*
X4532850Y481910D01*
X4534520Y535240D01*
X4531180Y588580D01*
X4522850Y621920D01*
X4511180Y648580D01*
X4499520Y655240D01*
X4487850Y648580D01*
X4472850Y621920D01*
X4477850Y795250D01*
X4522850D01*
G01X4563090Y395250D02*
Y661910D01*
G01Y588580D02*
X4568090Y621920D01*
X4576420Y648580D01*
X4588090Y661910D01*
X4599750Y648580D01*
X4608090Y621920D01*
X4613090Y588580D01*
Y395250D01*
G01Y588580D02*
X4618090Y621920D01*
X4626420Y648580D01*
X4638090Y661910D01*
X4649760Y648580D01*
X4658090Y621920D01*
X4663090Y581910D01*
Y395250D01*
G01X4678330D02*
Y661910D01*
G01Y588580D02*
X4683330Y621920D01*
X4691660Y648580D01*
X4703330Y661910D01*
X4714990Y648580D01*
X4723330Y621920D01*
X4728330Y588580D01*
Y395250D01*
G01Y588580D02*
X4733330Y621920D01*
X4741660Y648580D01*
X4753330Y661910D01*
X4765000Y648580D01*
X4773330Y621920D01*
X4778330Y581910D01*
Y395250D01*
G01X4955480Y321920D02*
X4962140Y408580D01*
G01X5160960Y395250D02*
Y795250D01*
G01Y601920D02*
X5169290Y635250D01*
X5177620Y655240D01*
X5190960Y661910D01*
X5200960Y655240D01*
X5212620Y628580D01*
X5217620Y588580D01*
Y395250D01*
G01X5279530Y575250D02*
X5332860D01*
X5327860Y621920D01*
X5319530Y648580D01*
X5307860Y661910D01*
X5296200Y655240D01*
X5286200Y635250D01*
X5279530Y588580D01*
X5276200Y548570D01*
Y508580D01*
X5279530Y468580D01*
X5287860Y428580D01*
X5297860Y401920D01*
X5309530Y395250D01*
X5321200Y408580D01*
X5332860Y448570D01*
G01X5419770Y661910D02*
Y395250D01*
G01Y768580D02*
X5416440Y775240D01*
Y788580D01*
X5419770Y795250D01*
X5423100Y788580D01*
Y775240D01*
X5419770Y768580D01*
G01X5511680Y295250D02*
X5523340Y268590D01*
X5536680Y261920D01*
X5548340Y268590D01*
X5558340Y301910D01*
X5565010Y348580D01*
Y661910D01*
G01Y608590D02*
X5558340Y635250D01*
X5548340Y655240D01*
X5536680Y661910D01*
X5523340Y648580D01*
X5515010Y621920D01*
X5508340Y575250D01*
X5505010Y528580D01*
X5506680Y488580D01*
X5513340Y441910D01*
X5523340Y408580D01*
X5536680Y395250D01*
X5546680Y401920D01*
X5558340Y428580D01*
X5565010Y455240D01*
G01X5621920Y395250D02*
Y795250D01*
G01Y601920D02*
X5630250Y635250D01*
X5638580Y655240D01*
X5651920Y661910D01*
X5661920Y655240D01*
X5673580Y628580D01*
X5678580Y588580D01*
Y395250D01*
G01X5765490Y795250D02*
Y395250D01*
G01X5742160Y661910D02*
X5788820D01*
G01X5995970Y381920D02*
X5992640Y388580D01*
Y401920D01*
X5995970Y408580D01*
X5999300Y401920D01*
Y388580D01*
X5995970Y381920D01*
G01Y561910D02*
X5992640Y568580D01*
Y581910D01*
X5995970Y588580D01*
X5999300Y581910D01*
Y568580D01*
X5995970Y561910D01*
G01X6246450Y395250D02*
Y795250D01*
X6184780Y508580D01*
X6268120D01*
G01X6406930Y395250D02*
Y661910D01*
G01Y588580D02*
X6411930Y621920D01*
X6420260Y648580D01*
X6431930Y661910D01*
X6443590Y648580D01*
X6451930Y621920D01*
X6456930Y588580D01*
Y395250D01*
G01Y588580D02*
X6461930Y621920D01*
X6470260Y648580D01*
X6481930Y661910D01*
X6493600Y648580D01*
X6501930Y621920D01*
X6506930Y581910D01*
Y395250D01*
G01X6522170D02*
Y661910D01*
G01Y588580D02*
X6527170Y621920D01*
X6535500Y648580D01*
X6547170Y661910D01*
X6558830Y648580D01*
X6567170Y621920D01*
X6572170Y588580D01*
Y395250D01*
G01Y588580D02*
X6577170Y621920D01*
X6585500Y648580D01*
X6597170Y661910D01*
X6608840Y648580D01*
X6617170Y621920D01*
X6622170Y581910D01*
Y395250D01*
G01X2726500Y998250D02*
X2882200Y842550D01*
X8653050D01*
X9500000Y1689500D01*
Y3246000D01*
G01X2726500Y998250D02*
X2984500Y1256250D01*
G01X2726500Y872500D02*
Y998250D01*
G01D02*
Y1124000D01*
G01Y998250D02*
X2852250D01*
G01X3838000Y1991500D02*
X3706000D01*
X3556000Y1841500D01*
Y1266250D01*
X3272500Y982750D01*
G01X2984500Y1256250D02*
Y2032000D01*
X3556000Y2603500D01*
G01X2726500Y2014250D02*
X3272500Y1998750D01*
G01X3277750Y2695500D02*
X3272500Y1998750D01*
G01X3492500Y4762500D02*
Y4572000D01*
X3333750Y4413250D01*
G01X5270500Y4762500D02*
X5524500D01*
X5588000Y4826000D01*
Y5080000D01*
X5524500Y5143500D01*
X4953000D01*
X4222750Y4413250D01*
X3333750D01*
G01X4318000Y4191000D02*
X3988600Y4520400D01*
X3276600D01*
X3238500Y4558500D01*
Y4699000D01*
X3492500Y4953000D01*
Y5016500D01*
G01Y5270500D02*
X3302000Y5461000D01*
Y6350000D01*
X3429000Y6477000D01*
X8636000D01*
X9144000Y5969000D01*
Y2857500D01*
X8890000Y2603500D01*
G01X3182000Y5918000D02*
Y6318000D01*
G01X3297240Y6184660D02*
Y5918000D01*
G01Y6291330D02*
X3293910Y6297990D01*
Y6311330D01*
X3297240Y6318000D01*
X3300570Y6311330D01*
Y6297990D01*
X3297240Y6291330D01*
G01X3384150Y5918000D02*
Y6184660D01*
G01Y6117990D02*
X3390810Y6151330D01*
X3400810Y6177990D01*
X3414150Y6184660D01*
X3425810Y6177990D01*
X3435810Y6151330D01*
X3440810Y6104660D01*
Y5918000D01*
G01X3502720Y6098000D02*
X3556050D01*
X3551050Y6144670D01*
X3542720Y6171330D01*
X3531050Y6184660D01*
X3519390Y6177990D01*
X3509390Y6158000D01*
X3502720Y6111330D01*
X3499390Y6071320D01*
Y6031330D01*
X3502720Y5991330D01*
X3511050Y5951330D01*
X3521050Y5924670D01*
X3532720Y5918000D01*
X3544390Y5931330D01*
X3556050Y5971320D01*
G01X3716530Y6184660D02*
X3736530Y5918000D01*
X3758200Y6184660D01*
X3779870Y5918000D01*
X3799870Y6184660D01*
G01X3873440D02*
Y5918000D01*
G01Y6291330D02*
X3870110Y6297990D01*
Y6311330D01*
X3873440Y6318000D01*
X3876770Y6311330D01*
Y6297990D01*
X3873440Y6291330D01*
G01X4018680Y6318000D02*
Y5918000D01*
G01Y5977990D02*
X4012010Y5944660D01*
X4002010Y5924670D01*
X3990350Y5918000D01*
X3977010Y5931330D01*
X3967010Y5964660D01*
X3960350Y6004660D01*
X3958680Y6051330D01*
X3960350Y6098000D01*
X3967010Y6138000D01*
X3977010Y6171330D01*
X3990350Y6184660D01*
X4002010Y6177990D01*
X4010350Y6164660D01*
X4018680Y6138000D01*
G01X4103920Y6318000D02*
Y5918000D01*
G01X4080590Y6184660D02*
X4127250D01*
G01X4190830Y5918000D02*
Y6318000D01*
G01Y6124670D02*
X4199160Y6158000D01*
X4207490Y6177990D01*
X4220830Y6184660D01*
X4230830Y6177990D01*
X4242490Y6151330D01*
X4247490Y6111330D01*
Y5918000D01*
G01X4449640Y5904670D02*
X4446310Y5911330D01*
Y5924670D01*
X4449640Y5931330D01*
X4452970Y5924670D01*
Y5911330D01*
X4449640Y5904670D01*
G01Y6084660D02*
X4446310Y6091330D01*
Y6104660D01*
X4449640Y6111330D01*
X4452970Y6104660D01*
Y6091330D01*
X4449640Y6084660D01*
G01X4680120Y6318000D02*
X4666780Y6304670D01*
X4656790Y6271330D01*
X4650120Y6231340D01*
X4645120Y6177990D01*
X4643450Y6117990D01*
X4645120Y6057990D01*
X4650120Y6004660D01*
X4656790Y5964660D01*
X4666780Y5931330D01*
X4680120Y5918000D01*
X4693450Y5931330D01*
X4703450Y5964660D01*
X4710120Y6004660D01*
X4715120Y6057990D01*
X4716790Y6117990D01*
X4715120Y6177990D01*
X4710120Y6231340D01*
X4703450Y6271330D01*
X4693450Y6304670D01*
X4680120Y6318000D01*
G01X4795360Y5904670D02*
X4792030Y5911330D01*
Y5924670D01*
X4795360Y5931330D01*
X4798690Y5924670D01*
Y5911330D01*
X4795360Y5904670D01*
G01X4873930Y5977990D02*
X4883930Y5944660D01*
X4895600Y5924670D01*
X4910600Y5918000D01*
X4925600Y5931330D01*
X4937270Y5957990D01*
X4945600Y6004660D01*
X4947270Y6057990D01*
X4943930Y6111330D01*
X4935600Y6144670D01*
X4923930Y6171330D01*
X4912270Y6177990D01*
X4900600Y6171330D01*
X4885600Y6144670D01*
X4890600Y6318000D01*
X4935600D01*
G01X4975840Y5918000D02*
Y6184660D01*
G01Y6111330D02*
X4980840Y6144670D01*
X4989170Y6171330D01*
X5000840Y6184660D01*
X5012500Y6171330D01*
X5020840Y6144670D01*
X5025840Y6111330D01*
Y5918000D01*
G01Y6111330D02*
X5030840Y6144670D01*
X5039170Y6171330D01*
X5050840Y6184660D01*
X5062510Y6171330D01*
X5070840Y6144670D01*
X5075840Y6104660D01*
Y5918000D01*
G01X5091080D02*
Y6184660D01*
G01Y6111330D02*
X5096080Y6144670D01*
X5104410Y6171330D01*
X5116080Y6184660D01*
X5127740Y6171330D01*
X5136080Y6144670D01*
X5141080Y6111330D01*
Y5918000D01*
G01Y6111330D02*
X5146080Y6144670D01*
X5154410Y6171330D01*
X5166080Y6184660D01*
X5177750Y6171330D01*
X5186080Y6144670D01*
X5191080Y6104660D01*
Y5918000D01*
G01X5368230Y5844670D02*
X5374890Y5931330D01*
G01X5573710Y5918000D02*
Y6318000D01*
G01Y6124670D02*
X5582040Y6158000D01*
X5590370Y6177990D01*
X5603710Y6184660D01*
X5613710Y6177990D01*
X5625370Y6151330D01*
X5630370Y6111330D01*
Y5918000D01*
G01X5692280Y6098000D02*
X5745610D01*
X5740610Y6144670D01*
X5732280Y6171330D01*
X5720610Y6184660D01*
X5708950Y6177990D01*
X5698950Y6158000D01*
X5692280Y6111330D01*
X5688950Y6071320D01*
Y6031330D01*
X5692280Y5991330D01*
X5700610Y5951330D01*
X5710610Y5924670D01*
X5722280Y5918000D01*
X5733950Y5931330D01*
X5745610Y5971320D01*
G01X5832520Y6184660D02*
Y5918000D01*
G01Y6291330D02*
X5829190Y6297990D01*
Y6311330D01*
X5832520Y6318000D01*
X5835850Y6311330D01*
Y6297990D01*
X5832520Y6291330D01*
G01X5924430Y5818000D02*
X5936090Y5791340D01*
X5949430Y5784670D01*
X5961090Y5791340D01*
X5971090Y5824660D01*
X5977760Y5871330D01*
Y6184660D01*
G01Y6131340D02*
X5971090Y6158000D01*
X5961090Y6177990D01*
X5949430Y6184660D01*
X5936090Y6171330D01*
X5927760Y6144670D01*
X5921090Y6098000D01*
X5917760Y6051330D01*
X5919430Y6011330D01*
X5926090Y5964660D01*
X5936090Y5931330D01*
X5949430Y5918000D01*
X5959430Y5924670D01*
X5971090Y5951330D01*
X5977760Y5977990D01*
G01X6034670Y5918000D02*
Y6318000D01*
G01Y6124670D02*
X6043000Y6158000D01*
X6051330Y6177990D01*
X6064670Y6184660D01*
X6074670Y6177990D01*
X6086330Y6151330D01*
X6091330Y6111330D01*
Y5918000D01*
G01X6178240Y6318000D02*
Y5918000D01*
G01X6154910Y6184660D02*
X6201570D01*
G01X6408720Y5904670D02*
X6405390Y5911330D01*
Y5924670D01*
X6408720Y5931330D01*
X6412050Y5924670D01*
Y5911330D01*
X6408720Y5904670D01*
G01Y6084660D02*
X6405390Y6091330D01*
Y6104660D01*
X6408720Y6111330D01*
X6412050Y6104660D01*
Y6091330D01*
X6408720Y6084660D01*
G01X6659200Y5918000D02*
Y6318000D01*
X6597530Y6031330D01*
X6680870D01*
G01X6819680Y5918000D02*
Y6184660D01*
G01Y6111330D02*
X6824680Y6144670D01*
X6833010Y6171330D01*
X6844680Y6184660D01*
X6856340Y6171330D01*
X6864680Y6144670D01*
X6869680Y6111330D01*
Y5918000D01*
G01Y6111330D02*
X6874680Y6144670D01*
X6883010Y6171330D01*
X6894680Y6184660D01*
X6906350Y6171330D01*
X6914680Y6144670D01*
X6919680Y6104660D01*
Y5918000D01*
G01X6934920D02*
Y6184660D01*
G01Y6111330D02*
X6939920Y6144670D01*
X6948250Y6171330D01*
X6959920Y6184660D01*
X6971580Y6171330D01*
X6979920Y6144670D01*
X6984920Y6111330D01*
Y5918000D01*
G01Y6111330D02*
X6989920Y6144670D01*
X6998250Y6171330D01*
X7009920Y6184660D01*
X7021590Y6171330D01*
X7029920Y6144670D01*
X7034920Y6104660D01*
Y5918000D01*
G01X2747950Y6096000D02*
X4762500D01*
G01X3472670Y6983160D02*
X3462670Y7003170D01*
X3451000Y7016500D01*
X3437670D01*
X3422660Y6996490D01*
X3411000Y6963170D01*
X3402670Y6923160D01*
X3396000Y6856500D01*
X3394330Y6796500D01*
X3397670Y6736500D01*
X3402670Y6696500D01*
X3412670Y6656490D01*
X3424330Y6629830D01*
X3436000Y6616500D01*
X3447670D01*
X3459330Y6629830D01*
X3469330Y6649830D01*
X3477670Y6676490D01*
G01X3516240Y6616500D02*
Y7016500D01*
G01X3586240D02*
Y6616500D01*
G01Y6816490D02*
X3516240D01*
G01X3666480Y6616500D02*
X3653140Y6623170D01*
X3641480Y6649830D01*
X3631480Y6689830D01*
X3624810Y6736500D01*
X3621480Y6789830D01*
Y6843170D01*
X3624810Y6896500D01*
X3631480Y6943170D01*
X3641480Y6983160D01*
X3653140Y7009830D01*
X3666480Y7016500D01*
X3679810Y7009830D01*
X3691480Y6983160D01*
X3701480Y6943170D01*
X3708150Y6896500D01*
X3711480Y6843170D01*
Y6789830D01*
X3708150Y6736500D01*
X3701480Y6689830D01*
X3691480Y6649830D01*
X3679810Y6623170D01*
X3666480Y6616500D01*
G01X3748390D02*
Y7016500D01*
X3788390D01*
X3801720Y6996490D01*
X3811720Y6949840D01*
X3815050Y6896500D01*
X3811720Y6843170D01*
X3803390Y6803160D01*
X3788390Y6783160D01*
X3748390D01*
G01X3863630Y6616500D02*
Y7016500D01*
X3903630D01*
X3916960Y6996490D01*
X3926960Y6949840D01*
X3930290Y6896500D01*
X3926960Y6843170D01*
X3918630Y6803160D01*
X3903630Y6783160D01*
X3863630D01*
G01X3992200Y7016500D02*
X4032200D01*
G01X4012200D02*
Y6616500D01*
G01X3992200D02*
X4032200D01*
G01X4089110D02*
Y7016500D01*
X4165770Y6616500D01*
Y7016500D01*
G01X4252680Y6816490D02*
X4286010D01*
Y6696500D01*
X4276010Y6656490D01*
X4264350Y6629830D01*
X4247680Y6616500D01*
X4231010Y6629830D01*
X4219350Y6656490D01*
X4209350Y6696500D01*
X4202680Y6743160D01*
X4199350Y6796500D01*
Y6843170D01*
X4202680Y6883160D01*
X4209350Y6929840D01*
X4219350Y6969830D01*
X4229340Y6996490D01*
X4242680Y7016500D01*
X4254350D01*
X4267680Y7003170D01*
X4277680Y6976500D01*
G01X4423160Y7016500D02*
X4446490Y6616500D01*
X4473160Y7016500D01*
X4499830Y6616500D01*
X4523160Y7016500D01*
G01X4546730Y6616500D02*
X4588400Y7016500D01*
X4630070Y6616500D01*
G01X4615070Y6756490D02*
X4561730D01*
G01X4661970Y7016500D02*
X4703640Y6616500D01*
X4745310Y7016500D01*
G01X4852210Y6616500D02*
X4785550D01*
Y7016500D01*
X4852210D01*
G01X4825550Y6823170D02*
X4785550D01*
G01X5049360Y6616500D02*
X5036020Y6623170D01*
X5024360Y6649830D01*
X5014360Y6689830D01*
X5007690Y6736500D01*
X5004360Y6789830D01*
Y6843170D01*
X5007690Y6896500D01*
X5014360Y6943170D01*
X5024360Y6983160D01*
X5036020Y7009830D01*
X5049360Y7016500D01*
X5062690Y7009830D01*
X5074360Y6983160D01*
X5084360Y6943170D01*
X5091030Y6896500D01*
X5094360Y6843170D01*
Y6789830D01*
X5091030Y6736500D01*
X5084360Y6689830D01*
X5074360Y6649830D01*
X5062690Y6623170D01*
X5049360Y6616500D01*
G01X5129600Y6669820D02*
X5142930Y6636500D01*
X5157930Y6616500D01*
X5171270D01*
X5184600Y6636500D01*
X5194600Y6669820D01*
X5199600Y6716500D01*
X5196270Y6763160D01*
X5187930Y6803160D01*
X5172930Y6829840D01*
X5152930Y6843170D01*
X5141270Y6869830D01*
X5136270Y6916500D01*
X5139600Y6963170D01*
X5147930Y6996490D01*
X5159600Y7016500D01*
X5171270D01*
X5182930Y7003170D01*
X5192930Y6969830D01*
G01X5316510Y6983160D02*
X5306510Y7003170D01*
X5294840Y7016500D01*
X5281510D01*
X5266500Y6996490D01*
X5254840Y6963170D01*
X5246510Y6923160D01*
X5239840Y6856500D01*
X5238170Y6796500D01*
X5241510Y6736500D01*
X5246510Y6696500D01*
X5256510Y6656490D01*
X5268170Y6629830D01*
X5279840Y6616500D01*
X5291510D01*
X5303170Y6629830D01*
X5313170Y6649830D01*
X5321510Y6676490D01*
G01X3838000Y975500D02*
X4559500Y1166500D01*
G01X3556000Y2603500D02*
Y3175000D01*
G01X4318000D02*
X3556000D01*
G01D02*
Y3300750D01*
G01X3430250Y3175000D02*
X3556000D01*
G01X4813500Y1420500D02*
X4559500Y1674500D01*
G01D02*
X4572500Y2422500D01*
G01X4826500Y2676500D02*
X4572500Y2422500D01*
G01X4826500Y2168500D02*
X5414750Y2154750D01*
G01X4826000Y3175000D02*
X4318000D01*
G01X5016500Y5016500D02*
X4953000Y4953000D01*
Y3302000D01*
X4826000Y3175000D01*
G01X4318000Y3049250D02*
Y3175000D01*
G01D02*
Y3300750D01*
G01X4254500Y5270500D02*
X4381500D01*
X4762500Y5651500D01*
Y6096000D01*
G01X8890000Y3619500D02*
Y5969000D01*
X8509000Y6350000D01*
X4635500D01*
X4445000Y6159500D01*
Y5207000D01*
X4254500Y5016500D01*
G01X6286500Y6068670D02*
X6253160Y6096000D01*
X4762500D01*
G01X4610010Y8398750D02*
Y8798750D01*
X4590010Y8718750D01*
G01Y8398750D02*
X4630010D01*
G01X4725250Y8798750D02*
X4711910Y8785420D01*
X4701920Y8752080D01*
X4695250Y8712090D01*
X4690250Y8658740D01*
X4688580Y8598740D01*
X4690250Y8538740D01*
X4695250Y8485410D01*
X4701920Y8445410D01*
X4711910Y8412080D01*
X4725250Y8398750D01*
X4738580Y8412080D01*
X4748580Y8445410D01*
X4755250Y8485410D01*
X4760250Y8538740D01*
X4761920Y8598740D01*
X4760250Y8658740D01*
X4755250Y8712090D01*
X4748580Y8752080D01*
X4738580Y8785420D01*
X4725250Y8798750D01*
G01X4840490D02*
X4827150Y8785420D01*
X4817160Y8752080D01*
X4810490Y8712090D01*
X4805490Y8658740D01*
X4803820Y8598740D01*
X4805490Y8538740D01*
X4810490Y8485410D01*
X4817160Y8445410D01*
X4827150Y8412080D01*
X4840490Y8398750D01*
X4853820Y8412080D01*
X4863820Y8445410D01*
X4870490Y8485410D01*
X4875490Y8538740D01*
X4877160Y8598740D01*
X4875490Y8658740D01*
X4870490Y8712090D01*
X4863820Y8752080D01*
X4853820Y8785420D01*
X4840490Y8798750D01*
G01X5414750Y1138750D02*
X6075000Y1198000D01*
G01X6540500Y3683000D02*
X6917890Y3305610D01*
Y3234890D01*
X6540500Y2857500D01*
X5969000D01*
X5270500Y3556000D01*
Y4762500D01*
G01Y4897100D02*
Y5016500D01*
G01D02*
X5016500D01*
G01X5270500D02*
X5389900D01*
G01X8255000Y4953000D02*
X8763000Y5461000D01*
Y5778500D01*
X8318500Y6223000D01*
X5270500D01*
X5016500Y5969000D01*
Y5524500D01*
X5270500Y5270500D01*
G01X6122830Y1612750D02*
X6056170D01*
Y2012750D01*
X6122830D01*
G01X6096170Y1819420D02*
X6056170D01*
G01X6171410Y2012750D02*
Y1612750D01*
X6238070D01*
G01X6353310D02*
X6286650D01*
Y2012750D01*
X6353310D01*
G01X6326650Y1819420D02*
X6286650D01*
G01X6471890Y1979410D02*
X6461890Y1999420D01*
X6450220Y2012750D01*
X6436890D01*
X6421880Y1992740D01*
X6410220Y1959420D01*
X6401890Y1919410D01*
X6395220Y1852750D01*
X6393550Y1792750D01*
X6396890Y1732750D01*
X6401890Y1692750D01*
X6411890Y1652740D01*
X6423550Y1626080D01*
X6435220Y1612750D01*
X6446890D01*
X6458550Y1626080D01*
X6468550Y1646080D01*
X6476890Y1672740D01*
G01X6550460Y2012750D02*
Y1612750D01*
G01X6512130Y2012750D02*
X6588790D01*
G01X6632370Y1612750D02*
Y2012750D01*
X6674030D01*
X6687370Y1992740D01*
X6695700Y1966080D01*
X6699030Y1912750D01*
X6695700Y1859410D01*
X6685700Y1826090D01*
X6674030Y1806080D01*
X6632370D01*
G01X6674030D02*
X6699030Y1612750D01*
G01X6780940D02*
X6767600Y1619420D01*
X6755940Y1646080D01*
X6745940Y1686080D01*
X6739270Y1732750D01*
X6735940Y1786080D01*
Y1839420D01*
X6739270Y1892750D01*
X6745940Y1939420D01*
X6755940Y1979410D01*
X6767600Y2006080D01*
X6780940Y2012750D01*
X6794270Y2006080D01*
X6805940Y1979410D01*
X6815940Y1939420D01*
X6822610Y1892750D01*
X6825940Y1839420D01*
Y1786080D01*
X6822610Y1732750D01*
X6815940Y1686080D01*
X6805940Y1646080D01*
X6794270Y1619420D01*
X6780940Y1612750D01*
G01X6857850D02*
Y2012750D01*
X6934510Y1612750D01*
Y2012750D01*
G01X6991420D02*
X7031420D01*
G01X7011420D02*
Y1612750D01*
G01X6991420D02*
X7031420D01*
G01X7163330Y1979410D02*
X7153330Y1999420D01*
X7141660Y2012750D01*
X7128330D01*
X7113320Y1992740D01*
X7101660Y1959420D01*
X7093330Y1919410D01*
X7086660Y1852750D01*
X7084990Y1792750D01*
X7088330Y1732750D01*
X7093330Y1692750D01*
X7103330Y1652740D01*
X7114990Y1626080D01*
X7126660Y1612750D01*
X7138330D01*
X7149990Y1626080D01*
X7159990Y1646080D01*
X7168330Y1672740D01*
G01X7393810Y1979410D02*
X7383810Y1999420D01*
X7372140Y2012750D01*
X7358810D01*
X7343800Y1992740D01*
X7332140Y1959420D01*
X7323810Y1919410D01*
X7317140Y1852750D01*
X7315470Y1792750D01*
X7318810Y1732750D01*
X7323810Y1692750D01*
X7333810Y1652740D01*
X7345470Y1626080D01*
X7357140Y1612750D01*
X7368810D01*
X7380470Y1626080D01*
X7390470Y1646080D01*
X7398810Y1672740D01*
G01X7430710Y1612750D02*
X7472380Y2012750D01*
X7514050Y1612750D01*
G01X7499050Y1752740D02*
X7445710D01*
G01X7550950Y1612750D02*
Y2012750D01*
X7584290D01*
X7597620Y1992740D01*
X7607620Y1966080D01*
X7615950Y1926090D01*
X7622620Y1879410D01*
X7624290Y1812740D01*
X7622620Y1746080D01*
X7615950Y1699410D01*
X7607620Y1659410D01*
X7597620Y1632750D01*
X7584290Y1612750D01*
X7550950D01*
G01X6075000Y1198000D02*
Y2138000D01*
X6350000Y2413000D01*
G01X6286500Y3429000D02*
Y2476500D01*
X6350000Y2413000D01*
G01D02*
X8509000D01*
X8699500Y2603500D01*
Y3683000D01*
X8382000Y4000500D01*
X7429500D01*
X7112000Y4318000D01*
Y4572000D01*
X7493000Y4953000D01*
G01X6032500Y5270500D02*
X6413500Y4889500D01*
Y4064000D01*
X6032500Y3683000D01*
G01X7810500Y3746500D02*
X7302500D01*
X6032500Y5016500D01*
G01X6286500Y6068670D02*
Y5511000D01*
X6236500Y5461000D01*
X6223000D01*
X6032500Y5270500D01*
G01X8255000Y5207000D02*
X8636000Y5588000D01*
Y5855500D01*
X8395500Y6096000D01*
X6313830D01*
X6286500Y6068670D01*
G01X7091000Y1198000D02*
X7810500Y2730500D01*
G01X6540500Y3683000D02*
X6621040Y3763540D01*
Y3827040D01*
X7493000Y4699000D01*
G01X7810500Y2730500D02*
X7937500D01*
X8128000Y2921000D01*
Y3810000D01*
X8509000Y4191000D01*
Y4699000D01*
X8255000Y4953000D01*
G01X8382000Y3746500D02*
X7810500D01*
G01X7493000Y5207000D02*
Y4953000D01*
G01X8382000Y2730500D02*
X8890000Y2603500D01*
G01X9500000Y3126600D02*
Y3246000D01*
G01D02*
Y3365400D01*
G01X9380600Y3246000D02*
X9500000D01*
G01Y3500000D02*
X9386100D01*
X9315100Y3429000D01*
X8953500D01*
X8890000Y3492500D01*
Y3619500D01*
G01X11124800Y3570750D02*
X11128130Y3657410D01*
X11133130Y3730740D01*
X11139800Y3797420D01*
X11148130Y3870750D01*
X11161460Y3970750D01*
X11094800D01*
G01X11243370D02*
X11230030Y3957420D01*
X11220040Y3924080D01*
X11213370Y3884090D01*
X11208370Y3830740D01*
X11206700Y3770740D01*
X11208370Y3710740D01*
X11213370Y3657410D01*
X11220040Y3617410D01*
X11230030Y3584080D01*
X11243370Y3570750D01*
X11256700Y3584080D01*
X11266700Y3617410D01*
X11273370Y3657410D01*
X11278370Y3710740D01*
X11280040Y3770740D01*
X11278370Y3830740D01*
X11273370Y3884090D01*
X11266700Y3924080D01*
X11256700Y3957420D01*
X11243370Y3970750D01*
M02*
