G04 ================== begin FILE IDENTIFICATION RECORD ==================*
G04 Layout Name:  C:/USERS/USER/DESKTOP/WORK/0731/allegro/CHOPPING_WAVE.brd*
G04 Film Name:    Design*
G04 File Format:  Gerber RS274X*
G04 File Origin:  Cadence Allegro 17.2-S052*
G04 Origin Date:  Wed Jul 31 12:42:10 2019*
G04 *
G04 Layer:  BOARD GEOMETRY/DIMENSION*
G04 Layer:  VIA CLASS/BOTTOM*
G04 Layer:  VIA CLASS/TOP*
G04 Layer:  ROUTE KEEPOUT/ALL*
G04 Layer:  ROUTE KEEPIN/ALL*
G04 Layer:  REF DES/SILKSCREEN_TOP*
G04 Layer:  REF DES/SILKSCREEN_BOTTOM*
G04 Layer:  PIN/BOTTOM*
G04 Layer:  PIN/TOP*
G04 Layer:  PACKAGE KEEPIN/ALL*
G04 Layer:  PACKAGE GEOMETRY/PIN_NUMBER*
G04 Layer:  PACKAGE GEOMETRY/SILKSCREEN_TOP*
G04 Layer:  PACKAGE GEOMETRY/SILKSCREEN_BOTTOM*
G04 Layer:  PACKAGE GEOMETRY/SOLDERMASK_TOP*
G04 Layer:  PACKAGE GEOMETRY/SOLDERMASK_BOTTOM*
G04 Layer:  PACKAGE GEOMETRY/PASTEMASK_TOP*
G04 Layer:  PACKAGE GEOMETRY/PASTEMASK_BOTTOM*
G04 Layer:  ETCH/BOTTOM*
G04 Layer:  ETCH/TOP*
G04 Layer:  BOARD GEOMETRY/OUTLINE*
G04 Layer:  BOARD GEOMETRY/SILKSCREEN_TOP*
G04 Layer:  BOARD GEOMETRY/SILKSCREEN_BOTTOM*
G04 Layer:  BOARD GEOMETRY/SOLDERMASK_TOP*
G04 Layer:  BOARD GEOMETRY/SOLDERMASK_BOTTOM*
G04 Layer:  BOARD GEOMETRY/DESIGN_OUTLINE*
G04 *
G04 Offset:    (0.0000 0.0000)*
G04 Mirror:    No*
G04 Mode:      Positive*
G04 Rotation:  0*
G04 FullContactRelief:  No*
G04 UndefLineWidth:     0.0000*
G04 ================== end FILE IDENTIFICATION RECORD ====================*
%FSLAX25Y25*MOMM*%
%IR0*IPPOS*OFA0.00000B0.00000*MIA0B0*SFA1.00000B1.00000*%
%ADD10C,.635*%
%ADD12C,1.524*%
%ADD11C,1.651*%
%ADD13R,1.524X1.524*%
%ADD14C,.5*%
%ADD16C,2.4134*%
%ADD17C,2.5404*%
%ADD15C,2.6674*%
G75*
%LPD*%
G75*
G36*
G01X8744750Y6500000D02*
X9245980D01*
Y6245980D01*
X9500000D01*
Y3627020D01*
G03Y3372980I0J-127020D01*
G01Y3360320D01*
G03Y3131680I0J-114320D01*
G01Y754020D01*
X9245980D01*
Y500000D01*
X754020D01*
Y754020D01*
X500000D01*
Y2864980D01*
G03X601910Y2916180I0J127022D01*
G01X642500D01*
G03X696110Y2938390I0J75806D01*
G01X1619360Y3861640D01*
G03X1639800Y3898940I-53602J53624D01*
G01X1640670Y3902930D01*
X2899250D01*
G03X2952860Y3925140I0J75806D01*
G01X3365160Y4337430D01*
X4222750D01*
G03X4276360Y4359640I0J75806D01*
G01X4984410Y5067680D01*
X5152970D01*
G02X5162570Y5054170I6J-10161D01*
G03X5156180Y5016500I107927J-37685D01*
G03X5384820I114320J0D01*
G03X5378430Y5054170I-114317J-15D01*
G02X5388030Y5067680I9594J3349D01*
G01X5493090D01*
X5512180Y5048590D01*
Y4857410D01*
X5493090Y4838320D01*
X5372410D01*
G03X5270500Y4889520I-101910J-75822D01*
G03Y4635480I0J-127020D01*
G03X5372410Y4686680I0J127022D01*
G01X5524500D01*
G03X5578110Y4708890I0J75806D01*
G01X5641610Y4772390D01*
G03X5663820Y4826000I-53596J53610D01*
G01Y5080000D01*
G03X5641610Y5133610I-75806J0D01*
G01X5578110Y5197110D01*
G03X5524500Y5219320I-53610J-53596D01*
G01X5401400D01*
G02X5391710Y5232520I4J10159D01*
G03X5397520Y5270500I-121211J37977D01*
G03X5337090Y5378670I-127027J0D01*
G02X5342410Y5397480I5324J8651D01*
G01X5346700D01*
G03X5397520Y5448300I0J50820D01*
G01Y5600700D01*
G03X5346700Y5651520I-50820J0D01*
G01X5194300D01*
G03X5143480Y5600700I0J-50820D01*
G01Y5529270D01*
G02X5126140Y5522090I-10159J5D01*
G01X5092320Y5555910D01*
Y5937590D01*
X5301910Y6147180D01*
X8287090D01*
X8687180Y5747090D01*
Y5492410D01*
X8399280Y5204510D01*
G02X8381950Y5211350I-7179J7186D01*
G03X8303020Y5324590I-126946J-4355D01*
G02Y5343410I3838J9410D01*
G03X8382020Y5461000I-48015J117590D01*
G03X8127980I-127020J0D01*
G03X8206980Y5343410I127015J0D01*
G02Y5324590I-3838J-9410D01*
G03Y5089410I48015J-117590D01*
G02Y5070590I-3838J-9410D01*
G03Y4835410I48015J-117590D01*
G02Y4816590I-3838J-9410D01*
G03X8127980Y4699000I48015J-117590D01*
G03X8382020I127020J0D01*
G03X8303020Y4816590I-127015J0D01*
G02Y4835410I3838J9410D01*
G03X8382020Y4953000I-48015J117590D01*
G03X8381010Y4969000I-127021J14D01*
G01X8380690Y4971470D01*
X8796840Y5387610D01*
G02X8814180Y5380430I7181J-7185D01*
G01Y3729220D01*
G03X8788140Y3705600I75804J-109734D01*
G02X8770830Y3708710I-7756J6559D01*
G03X8753110Y3736610I-71323J-25722D01*
G01X8435610Y4054110D01*
G03X8382000Y4076320I-53610J-53596D01*
G01X7460910D01*
X7187820Y4349410D01*
Y4540590D01*
X7348720Y4701490D01*
G02X7366050Y4694650I7179J-7186D01*
G03X7493000Y4571980I126950J4355D01*
G03X7620020Y4699000I0J127020D01*
G03X7541020Y4816590I-127015J0D01*
G02Y4835410I3838J9410D01*
G03Y5070590I-48015J117590D01*
G02Y5089410I3838J9410D01*
G03X7620020Y5207000I-48015J117590D01*
G03X7559590Y5315170I-127027J0D01*
G02X7564910Y5333980I5324J8651D01*
G01X7569200D01*
G03X7620020Y5384800I0J50820D01*
G01Y5537200D01*
G03X7569200Y5588020I-50820J0D01*
G01X7416800D01*
G03X7365980Y5537200I0J-50820D01*
G01Y5384800D01*
G03X7416800Y5333980I50820J0D01*
G01X7421090D01*
G02X7426410Y5315170I-4J-10159D01*
G03X7365980Y5207000I66597J-108170D01*
G03X7444980Y5089410I127015J0D01*
G02Y5070590I-3838J-9410D01*
G03X7365980Y4953000I48015J-117590D01*
G03X7366990Y4937000I127021J-14D01*
G01X7367310Y4934530D01*
X7058390Y4625610D01*
G03X7036180Y4572000I53596J-53610D01*
G01Y4318000D01*
G03X7058390Y4264390I75806J0D01*
G01X7375890Y3946890D01*
G03X7429500Y3924680I53610J53596D01*
G01X8350590D01*
X8378460Y3896810D01*
G02X8372040Y3879500I-7184J-7181D01*
G03X8272280Y3822320I9964J-132998D01*
G01X7920220D01*
G03X7700780I-109720J-75816D01*
G01X7333910D01*
X6158190Y4998030D01*
X6158510Y5000500D01*
G03X6159520Y5016500I-126011J15986D01*
G03X6080520Y5134090I-127015J0D01*
G02Y5152910I3838J9410D01*
G03Y5388090I-48015J117590D01*
G02Y5406910I3838J9410D01*
G03X6159520Y5524500I-48015J117590D01*
G03X5905480I-127020J0D01*
G03X5984480Y5406910I127015J0D01*
G02Y5388090I-3838J-9410D01*
G03Y5152910I48015J-117590D01*
G02Y5134090I-3838J-9410D01*
G03Y4898910I48015J-117590D01*
G02Y4880090I-3838J-9410D01*
G03X5905480Y4762500I48015J-117590D01*
G03X6032500Y4635480I127020J0D01*
G03X6159450Y4758150I0J127025D01*
G02X6176780Y4764990I10151J-346D01*
G01X7248890Y3692890D01*
G03X7302500Y3670680I53610J53596D01*
G01X7700780D01*
G03X7920220I109720J75816D01*
G01X8272280D01*
G03X8382000Y3613130I109720J75816D01*
G03X8515000Y3736540I0J133373D01*
G02X8532310Y3742960I10129J-764D01*
G01X8623680Y3651590D01*
Y2634910D01*
X8477590Y2488820D01*
X6381410D01*
X6362320Y2507910D01*
Y3327090D01*
G03X6413520Y3429000I-75822J101910D01*
G03X6159480I-127020J0D01*
G03X6210680Y3327090I127022J0D01*
G01Y2476500D01*
G03X6232890Y2422890I75806J0D01*
G01X6242770Y2413000D01*
X6021390Y2191610D01*
G03X5999180Y2138000I53596J-53610D01*
G01Y1307720D01*
G03X5941630Y1198000I75816J-109720D01*
G03X6208370I133370J0D01*
G03X6150820Y1307720I-133366J0D01*
G01Y2106590D01*
X6381410Y2337180D01*
X8509000D01*
G03X8562610Y2359390I0J75806D01*
G01X8753110Y2549890D01*
G03X8757720Y2554930I-53583J53640D01*
G02X8766330Y2553570I3898J-3258D01*
G03X8890000Y2470130I123670J49928D01*
G03X9023370Y2603500I0J133370D01*
G03X9021640Y2624930I-133371J18D01*
G01X9021220Y2627490D01*
X9197610Y2803890D01*
G03X9219820Y2857500I-53596J53610D01*
G01Y5969000D01*
G03X9197610Y6022610I-75806J0D01*
G01X8737570Y6482660D01*
G02X8744750Y6500000I7185J7181D01*
G37*
G36*
G01X754020D02*
X3320250D01*
G02X3327430Y6482660I-5J-10159D01*
G01X3248390Y6403610D01*
G03X3226180Y6350000I53596J-53610D01*
G01Y5461000D01*
G03X3248390Y5407390I75806J0D01*
G01X3366810Y5288970D01*
X3366490Y5286500D01*
G03X3365480Y5270500I126011J-15986D01*
G03X3444480Y5152910I127015J0D01*
G02Y5134090I-3838J-9410D01*
G03Y4898910I48015J-117590D01*
G02Y4880090I-3838J-9410D01*
G03X3365480Y4762500I48015J-117590D01*
G03X3416680Y4660590I127022J0D01*
G01Y4603410D01*
X2867840Y4054570D01*
X1641570D01*
Y4561820D01*
G02X1651680Y4571980I10159J1D01*
G03X1778020Y4699000I-682J127020D01*
G03X1699020Y4816590I-127015J0D01*
G02Y4835410I3838J9410D01*
G03Y5070590I-48015J117590D01*
G02Y5089410I3838J9410D01*
G03X1778020Y5207000I-48015J117590D01*
G03X1717590Y5315170I-127027J0D01*
G02X1722910Y5333980I5324J8651D01*
G01X1727200D01*
G03X1778020Y5384800I0J50820D01*
G01Y5537200D01*
G03X1727200Y5588020I-50820J0D01*
G01X1574800D01*
G03X1523980Y5537200I0J-50820D01*
G01Y5384800D01*
G03X1574800Y5333980I50820J0D01*
G01X1579090D01*
G02X1584410Y5315170I-4J-10159D01*
G03X1523980Y5207000I66597J-108170D01*
G03X1602980Y5089410I127015J0D01*
G02Y5070590I-3838J-9410D01*
G03Y4835410I48015J-117590D01*
G02Y4816590I-3838J-9410D01*
G03X1523980Y4699000I48015J-117590D01*
G03X1524990Y4683000I127021J-14D01*
G01X1525310Y4680530D01*
X1512140Y4667360D01*
G03X1489930Y4613750I53596J-53610D01*
G01Y3946660D01*
X611090Y3067820D01*
X601940D01*
X600410Y3069790D01*
G03X500000Y3119020I-100410J-77784D01*
G01Y3131680D01*
G03Y3360320I0J114320D01*
G01Y3372980D01*
G03Y3627020I0J127020D01*
G01Y6245980D01*
X754020D01*
Y6500000D01*
G37*
G36*
G01X3460410Y6401180D02*
X4554930D01*
G02X4562110Y6383840I-5J-10159D01*
G01X4391390Y6213110D01*
G03X4369180Y6159500I53596J-53610D01*
G01Y5613350D01*
G02X4351280Y5606770I-10159J-1D01*
G03X4254500Y5651520I-96780J-82277D01*
G03X4127480Y5524500I0J-127020D01*
G03X4206480Y5406910I127015J0D01*
G02Y5388090I-3838J-9410D01*
G03Y5152910I48015J-117590D01*
G02Y5134090I-3838J-9410D01*
G03Y4898910I48015J-117590D01*
G02Y4880090I-3838J-9410D01*
G03X4127480Y4762500I48015J-117590D01*
G03X4381520I127020J0D01*
G03X4302520Y4880090I-127015J0D01*
G02Y4898910I3838J9410D01*
G03X4381520Y5016500I-48015J117590D01*
G03X4380510Y5032500I-127021J14D01*
G01X4380190Y5034970D01*
X4498610Y5153390D01*
G03X4520820Y5207000I-53596J53610D01*
G01Y6128090D01*
X4666910Y6274180D01*
X5189930D01*
G02X5197110Y6256840I-5J-10159D01*
G01X4962890Y6022610D01*
G03X4940680Y5969000I53596J-53610D01*
G01Y5524500D01*
G03X4962890Y5470890I75806J0D01*
G01X5144810Y5288970D01*
X5144490Y5286500D01*
G03X5143480Y5270500I126011J-15986D01*
G03X5149290Y5232520I127021J-3D01*
G02X5139600Y5219320I-9694J-3041D01*
G01X4953000D01*
G03X4899390Y5197110I0J-75806D01*
G01X4191340Y4489070D01*
X3541320D01*
G02X3534140Y4506410I5J10159D01*
G01X3546110Y4518390D01*
G03X3568320Y4572000I-53596J53610D01*
G01Y4660590D01*
G03X3619520Y4762500I-75822J101910D01*
G03X3540520Y4880090I-127015J0D01*
G02Y4898910I3838J9410D01*
G03Y5134090I-48015J117590D01*
G02Y5152910I3838J9410D01*
G03X3619520Y5270500I-48015J117590D01*
G03X3559090Y5378670I-127027J0D01*
G02X3564410Y5397480I5324J8651D01*
G01X3568700D01*
G03X3619520Y5448300I0J50820D01*
G01Y5600700D01*
G03X3568700Y5651520I-50820J0D01*
G01X3416300D01*
G03X3392700Y5645710I-4J-50821D01*
G02X3377820Y5654700I-4721J8996D01*
G01Y6318590D01*
X3460410Y6401180D01*
G37*
G36*
G01X4302520Y5406910D02*
G03X4351280Y5442230I-48011J117597D01*
G02X4369180Y5435650I7741J-6579D01*
G01Y5359350D01*
G02X4351280Y5352770I-10159J-1D01*
G03X4302520Y5388090I-96771J-82277D01*
G02Y5406910I3838J9410D01*
G37*
G36*
G01X8399070Y6274180D02*
X8477590D01*
X8814180Y5937590D01*
Y5859070D01*
G02X8796840Y5851890I-10159J5D01*
G01X8391890Y6256840D01*
G02X8399070Y6274180I7185J7181D01*
G37*
G36*
G01X8589570Y6401180D02*
X8604590D01*
X9068180Y5937590D01*
Y2888910D01*
X8913990Y2734720D01*
X8911430Y2735140D01*
G03X8890000Y2736870I-21412J-131641D01*
G03X8792880Y2694910I0J-133376D01*
G02X8775320Y2701870I-7401J6959D01*
G01Y3521130D01*
G02X8792880Y3528090I10159J1D01*
G03X8890000Y3486130I97120J91416D01*
G03X9023370Y3619500I0J133370D01*
G03X8965820Y3729220I-133366J0D01*
G01Y5969000D01*
G03X8943610Y6022610I-75806J0D01*
G01X8582390Y6383840D01*
G02X8589570Y6401180I7185J7181D01*
G37*
%LPC*%
G75*
G36*
G01X2468660Y2616230D02*
G03X2449840I-9410J-3838D01*
G02X2332250Y2537230I-117590J48015D01*
G02Y2791270I0J127020D01*
G02X2449840Y2712270I0J-127015D01*
G03X2468660I9410J3838D01*
G02X2586250Y2791270I117590J-48015D01*
G02Y2537230I0J-127020D01*
G02X2468660Y2616230I0J127015D01*
G37*
G36*
G01X4590970Y2548190D02*
X4700810Y2658030D01*
X4700490Y2660500D01*
G02X4699480Y2676500I126011J15986D01*
G02X4826500Y2549480I127020J0D01*
G02X4810500Y2550490I-14J127021D01*
G01X4808030Y2550810D01*
X4698190Y2440970D01*
X4698510Y2438500D01*
G02X4699520Y2422500I-126011J-15986D01*
G02X4572500Y2549520I-127020J0D01*
G02X4588500Y2548510I14J-127021D01*
G01X4590970Y2548190D01*
G37*
G36*
G01X3160160Y2647480D02*
G03X3141340I-9410J-3838D01*
G02X3023750Y2568480I-117590J48015D01*
G02Y2822520I0J127020D01*
G02X3141340Y2743520I0J-127015D01*
G03X3160160I9410J3838D01*
G02X3277750Y2822520I117590J-48015D01*
G02Y2568480I0J-127020D01*
G02X3160160Y2647480I0J127015D01*
G37*
G36*
G01X1418410Y2657730D02*
G03X1399590I-9410J-3838D01*
G02X1282000Y2578730I-117590J48015D01*
G02Y2832770I0J127020D01*
G02X1399590Y2753770I0J-127015D01*
G03X1418410I9410J3838D01*
G02X1536000Y2832770I117590J-48015D01*
G02Y2578730I0J-127020D01*
G02X1418410Y2657730I0J127015D01*
G37*
G36*
G01X898890Y5451110D02*
X1406890Y5959110D01*
G02X1460500Y5981320I53610J-53596D01*
G01X2730500D01*
G02X2784110Y5959110I0J-75806D01*
G01X2911110Y5832110D01*
G02X2933320Y5778500I-53596J-53610D01*
G01Y5397500D01*
G02X2911110Y5343890I-75806J0D01*
G01X2538690Y4971470D01*
X2539010Y4969000D01*
G02X2540020Y4953000I-126011J-15986D01*
G02X2461020Y4835410I-127015J0D01*
G03Y4816590I3838J-9410D01*
G02X2540020Y4699000I-48015J-117590D01*
G02X2285980I-127020J0D01*
G02X2364980Y4816590I127015J0D01*
G03Y4835410I-3838J9410D01*
G02Y5070590I48015J117590D01*
G03Y5089410I-3838J9410D01*
G02Y5324590I48015J117590D01*
G03Y5343410I-3838J9410D01*
G02X2285980Y5461000I48015J117590D01*
G02X2540020I127020J0D01*
G02X2461020Y5343410I-127015J0D01*
G03Y5324590I3838J-9410D01*
G02X2539950Y5211350I-48016J-117595D01*
G03X2557280Y5204510I10151J346D01*
G01X2781680Y5428910D01*
Y5747090D01*
X2699090Y5829680D01*
X1491910D01*
X1028320Y5366090D01*
Y4165910D01*
G02X1079520Y4064000I-75822J-101910D01*
G02X1000520Y3946410I-127015J0D01*
G03Y3927590I3838J-9410D01*
G02X1079520Y3810000I-48015J-117590D01*
G02X825480I-127020J0D01*
G02X904480Y3927590I127015J0D01*
G03Y3946410I-3838J9410D01*
G02X825480Y4064000I48015J117590D01*
G02X876680Y4165910I127022J0D01*
G01Y5397500D01*
G02X898890Y5451110I75806J0D01*
G37*
G54D16*
X3556000Y3175000D03*
X4318000D03*
X2726500Y998250D03*
X2201500Y1008750D03*
X1624250Y1024250D03*
X1135500Y1013750D03*
G54D17*
X6540500Y3683000D03*
X6032500D03*
X4826500Y2168500D03*
X4813500Y1420500D03*
X4559500Y1674500D03*
Y1166500D03*
G54D15*
X5414750Y1138750D03*
Y2154750D03*
X3838000Y1991500D03*
Y975500D03*
X3556000Y4191000D03*
X4318000D03*
X7091000Y1198000D03*
X3272500Y982750D03*
Y1998750D03*
X8382000Y2730500D03*
X7810500D03*
X2726500Y2014250D03*
X2201500Y2024750D03*
X1624250Y2040250D03*
X1135500Y2029750D03*
%LPD*%
G75*
G36*
G01X246000Y246000D02*
Y754000D01*
X754000D01*
Y246000D01*
X246000D01*
G37*
G36*
G01Y6246000D02*
Y6754000D01*
X754000D01*
Y6246000D01*
X246000D01*
G37*
G36*
G01X9246000Y246000D02*
Y754000D01*
X9754000D01*
Y246000D01*
X9246000D01*
G37*
G36*
G01Y6246000D02*
Y6754000D01*
X9754000D01*
Y6246000D01*
X9246000D01*
G37*
G54D10*
X500000Y500000D03*
D03*
Y6500000D03*
D03*
X9500000Y500000D03*
D03*
Y6500000D03*
D03*
G54D11*
X1135500Y1013750D03*
D03*
Y2029750D03*
D03*
X1624250Y1024250D03*
D03*
Y2040250D03*
D03*
X2201500Y1008750D03*
D03*
X2726500Y998250D03*
D03*
X2201500Y2024750D03*
D03*
X2726500Y2014250D03*
D03*
X3272500Y982750D03*
D03*
Y1998750D03*
D03*
X3838000Y975500D03*
D03*
Y1991500D03*
D03*
X3556000Y3175000D03*
D03*
Y4191000D03*
D03*
X4318000Y3175000D03*
D03*
Y4191000D03*
D03*
X5414750Y1138750D03*
D03*
Y2154750D03*
D03*
X6075000Y1198000D03*
D03*
X7091000D03*
D03*
X7810500Y2730500D03*
D03*
Y3746500D03*
D03*
X8382000Y2730500D03*
D03*
Y3746500D03*
D03*
X8890000Y2603500D03*
D03*
Y3619500D03*
D03*
G54D12*
X500000Y2992000D03*
D03*
Y3246000D03*
D03*
Y3500000D03*
D03*
X952500Y3810000D03*
D03*
Y4064000D03*
D03*
X1282000Y2705750D03*
D03*
X1536000D03*
D03*
X1651000Y4699000D03*
D03*
Y4953000D03*
D03*
Y5207000D03*
D03*
X2332250Y2664250D03*
D03*
X2586250D03*
D03*
X2413000Y4699000D03*
D03*
Y4953000D03*
D03*
Y5207000D03*
D03*
Y5461000D03*
D03*
X3023750Y2695500D03*
D03*
X3277750D03*
D03*
X3492500Y4762500D03*
D03*
Y5016500D03*
D03*
Y5270500D03*
D03*
X4254500Y4762500D03*
D03*
Y5016500D03*
D03*
Y5270500D03*
D03*
Y5524500D03*
D03*
X4559500Y1166500D03*
D03*
Y1674500D03*
D03*
X4813500Y1420500D03*
D03*
X4826500Y2168500D03*
D03*
X4572500Y2422500D03*
D03*
X4826500Y2676500D03*
D03*
X5270500Y4762500D03*
D03*
Y5016500D03*
D03*
Y5270500D03*
D03*
X6286500Y3429000D03*
D03*
X6540500Y3683000D03*
D03*
X6032500D03*
D03*
Y4762500D03*
D03*
Y5016500D03*
D03*
Y5270500D03*
D03*
Y5524500D03*
D03*
X7493000Y4699000D03*
D03*
Y4953000D03*
D03*
Y5207000D03*
D03*
X8255000Y4699000D03*
D03*
Y4953000D03*
D03*
Y5207000D03*
D03*
Y5461000D03*
D03*
X9500000Y3246000D03*
D03*
Y3500000D03*
D03*
G54D13*
X1651000Y5461000D03*
D03*
X3492500Y5524500D03*
D03*
X5270500D03*
D03*
X7493000Y5461000D03*
D03*
G54D14*
G01X500000Y3246000D02*
X325000D01*
X254000Y3175000D01*
Y1206500D01*
X444500Y1016000D01*
X1012990D01*
X1015240Y1013750D01*
X1135500D01*
G01X1009750D02*
X1135500D01*
G01X500000Y3126600D02*
Y3246000D01*
G01D02*
Y3365400D01*
G01Y3246000D02*
X619400D01*
G01X952500Y3810000D02*
Y3035250D01*
X1282000Y2705750D01*
G01X1565750Y3978750D02*
Y3915250D01*
X642500Y2992000D01*
X500000D01*
G01X2413000Y4953000D02*
X2857500Y5397500D01*
Y5778500D01*
X2730500Y5905500D01*
X1460500D01*
X952500Y5397500D01*
Y4064000D01*
G01X500000Y3500000D02*
Y3738500D01*
X580540Y3819040D01*
Y5406540D01*
X1270000Y6096000D01*
X2747950D01*
G01X1624250Y1024250D02*
X1266260D01*
X1255760Y1013750D01*
X1135500D01*
G01X2201500Y1008750D02*
X1760010D01*
X1744510Y1024250D01*
X1624250D01*
G01X1135500Y888000D02*
Y1013750D01*
G01D02*
Y1139500D01*
G01Y1013750D02*
X1261250D01*
G01X1624250Y898500D02*
Y1024250D01*
G01D02*
Y1150000D01*
G01X1498500Y1024250D02*
X1624250D01*
G01D02*
X1750000D01*
G01X1135500Y2029750D02*
Y2559250D01*
X1282000Y2705750D01*
G01X1624250Y2040250D02*
X1536000Y2705750D01*
G01D02*
X2332250Y2664250D01*
G01X3838000Y1991500D02*
Y3464500D01*
X3683000Y3619500D01*
X1651000D01*
X1397000Y3873500D01*
Y5157000D01*
X1447000Y5207000D01*
X1651000D01*
G01Y4699000D02*
X1565750Y4613750D01*
Y3978750D01*
G01X3333750Y4413250D02*
X2899250Y3978750D01*
X1565750D01*
G01X1651000Y4953000D02*
X1524000Y4826000D01*
Y4508500D01*
X1841500Y4191000D01*
X3556000D01*
G01X2726500Y998250D02*
X2332260D01*
X2321760Y1008750D01*
X2201500D01*
G01Y883000D02*
Y1008750D01*
G01D02*
Y1134500D01*
G01X2075750Y1008750D02*
X2201500D01*
G01D02*
X2327250D01*
G01X2600750Y998250D02*
X2726500D01*
G01X2201500Y2024750D02*
X2586250Y2664250D01*
G01X3023750Y2695500D02*
X2586250Y2664250D01*
G01X4826500Y2676500D02*
X4582000Y2921000D01*
X4177500D01*
X4127500Y2971000D01*
Y2984500D01*
X4000500Y3111500D01*
Y4064000D01*
X3619500Y4445000D01*
X2921000D01*
X2413000Y4953000D01*
G01X2747950Y6096000D02*
Y5428050D01*
X2526900Y5207000D01*
X2413000D01*
G01X3369250Y329500D02*
Y729500D01*
G01X3484490Y596160D02*
Y329500D01*
G01Y702830D02*
X3481160Y709490D01*
Y722830D01*
X3484490Y729500D01*
X3487820Y722830D01*
Y709490D01*
X3484490Y702830D01*
G01X3571400Y329500D02*
Y596160D01*
G01Y529490D02*
X3578060Y562830D01*
X3588060Y589490D01*
X3601400Y596160D01*
X3613060Y589490D01*
X3623060Y562830D01*
X3628060Y516160D01*
Y329500D01*
G01X3689970Y509500D02*
X3743300D01*
X3738300Y556170D01*
X3729970Y582830D01*
X3718300Y596160D01*
X3706640Y589490D01*
X3696640Y569500D01*
X3689970Y522830D01*
X3686640Y482820D01*
Y442830D01*
X3689970Y402830D01*
X3698300Y362830D01*
X3708300Y336170D01*
X3719970Y329500D01*
X3731640Y342830D01*
X3743300Y382820D01*
G01X3903780Y596160D02*
X3923780Y329500D01*
X3945450Y596160D01*
X3967120Y329500D01*
X3987120Y596160D01*
G01X4060690D02*
Y329500D01*
G01Y702830D02*
X4057360Y709490D01*
Y722830D01*
X4060690Y729500D01*
X4064020Y722830D01*
Y709490D01*
X4060690Y702830D01*
G01X4205930Y729500D02*
Y329500D01*
G01Y389490D02*
X4199260Y356160D01*
X4189260Y336170D01*
X4177600Y329500D01*
X4164260Y342830D01*
X4154260Y376160D01*
X4147600Y416160D01*
X4145930Y462830D01*
X4147600Y509500D01*
X4154260Y549500D01*
X4164260Y582830D01*
X4177600Y596160D01*
X4189260Y589490D01*
X4197600Y576160D01*
X4205930Y549500D01*
G01X4291170Y729500D02*
Y329500D01*
G01X4267840Y596160D02*
X4314500D01*
G01X4378080Y329500D02*
Y729500D01*
G01Y536170D02*
X4386410Y569500D01*
X4394740Y589490D01*
X4408080Y596160D01*
X4418080Y589490D01*
X4429740Y562830D01*
X4434740Y522830D01*
Y329500D01*
G01X4636890Y316170D02*
X4633560Y322830D01*
Y336170D01*
X4636890Y342830D01*
X4640220Y336170D01*
Y322830D01*
X4636890Y316170D01*
G01Y496160D02*
X4633560Y502830D01*
Y516160D01*
X4636890Y522830D01*
X4640220Y516160D01*
Y502830D01*
X4636890Y496160D01*
G01X4867370Y729500D02*
X4854030Y716170D01*
X4844040Y682830D01*
X4837370Y642840D01*
X4832370Y589490D01*
X4830700Y529490D01*
X4832370Y469490D01*
X4837370Y416160D01*
X4844040Y376160D01*
X4854030Y342830D01*
X4867370Y329500D01*
X4880700Y342830D01*
X4890700Y376160D01*
X4897370Y416160D01*
X4902370Y469490D01*
X4904040Y529490D01*
X4902370Y589490D01*
X4897370Y642840D01*
X4890700Y682830D01*
X4880700Y716170D01*
X4867370Y729500D01*
G01X4982610Y316170D02*
X4979280Y322830D01*
Y336170D01*
X4982610Y342830D01*
X4985940Y336170D01*
Y322830D01*
X4982610Y316170D01*
G01X5061180Y389490D02*
X5071180Y356160D01*
X5082850Y336170D01*
X5097850Y329500D01*
X5112850Y342830D01*
X5124520Y369490D01*
X5132850Y416160D01*
X5134520Y469490D01*
X5131180Y522830D01*
X5122850Y556170D01*
X5111180Y582830D01*
X5099520Y589490D01*
X5087850Y582830D01*
X5072850Y556170D01*
X5077850Y729500D01*
X5122850D01*
G01X5163090Y329500D02*
Y596160D01*
G01Y522830D02*
X5168090Y556170D01*
X5176420Y582830D01*
X5188090Y596160D01*
X5199750Y582830D01*
X5208090Y556170D01*
X5213090Y522830D01*
Y329500D01*
G01Y522830D02*
X5218090Y556170D01*
X5226420Y582830D01*
X5238090Y596160D01*
X5249760Y582830D01*
X5258090Y556170D01*
X5263090Y516160D01*
Y329500D01*
G01X5278330D02*
Y596160D01*
G01Y522830D02*
X5283330Y556170D01*
X5291660Y582830D01*
X5303330Y596160D01*
X5314990Y582830D01*
X5323330Y556170D01*
X5328330Y522830D01*
Y329500D01*
G01Y522830D02*
X5333330Y556170D01*
X5341660Y582830D01*
X5353330Y596160D01*
X5365000Y582830D01*
X5373330Y556170D01*
X5378330Y516160D01*
Y329500D01*
G01X5555480Y256170D02*
X5562140Y342830D01*
G01X5760960Y329500D02*
Y729500D01*
G01Y536170D02*
X5769290Y569500D01*
X5777620Y589490D01*
X5790960Y596160D01*
X5800960Y589490D01*
X5812620Y562830D01*
X5817620Y522830D01*
Y329500D01*
G01X5879530Y509500D02*
X5932860D01*
X5927860Y556170D01*
X5919530Y582830D01*
X5907860Y596160D01*
X5896200Y589490D01*
X5886200Y569500D01*
X5879530Y522830D01*
X5876200Y482820D01*
Y442830D01*
X5879530Y402830D01*
X5887860Y362830D01*
X5897860Y336170D01*
X5909530Y329500D01*
X5921200Y342830D01*
X5932860Y382820D01*
G01X6019770Y596160D02*
Y329500D01*
G01Y702830D02*
X6016440Y709490D01*
Y722830D01*
X6019770Y729500D01*
X6023100Y722830D01*
Y709490D01*
X6019770Y702830D01*
G01X6111680Y229500D02*
X6123340Y202840D01*
X6136680Y196170D01*
X6148340Y202840D01*
X6158340Y236160D01*
X6165010Y282830D01*
Y596160D01*
G01Y542840D02*
X6158340Y569500D01*
X6148340Y589490D01*
X6136680Y596160D01*
X6123340Y582830D01*
X6115010Y556170D01*
X6108340Y509500D01*
X6105010Y462830D01*
X6106680Y422830D01*
X6113340Y376160D01*
X6123340Y342830D01*
X6136680Y329500D01*
X6146680Y336170D01*
X6158340Y362830D01*
X6165010Y389490D01*
G01X6221920Y329500D02*
Y729500D01*
G01Y536170D02*
X6230250Y569500D01*
X6238580Y589490D01*
X6251920Y596160D01*
X6261920Y589490D01*
X6273580Y562830D01*
X6278580Y522830D01*
Y329500D01*
G01X6365490Y729500D02*
Y329500D01*
G01X6342160Y596160D02*
X6388820D01*
G01X6595970Y316170D02*
X6592640Y322830D01*
Y336170D01*
X6595970Y342830D01*
X6599300Y336170D01*
Y322830D01*
X6595970Y316170D01*
G01Y496160D02*
X6592640Y502830D01*
Y516160D01*
X6595970Y522830D01*
X6599300Y516160D01*
Y502830D01*
X6595970Y496160D01*
G01X6846450Y329500D02*
Y729500D01*
X6784780Y442830D01*
X6868120D01*
G01X7006930Y329500D02*
Y596160D01*
G01Y522830D02*
X7011930Y556170D01*
X7020260Y582830D01*
X7031930Y596160D01*
X7043590Y582830D01*
X7051930Y556170D01*
X7056930Y522830D01*
Y329500D01*
G01Y522830D02*
X7061930Y556170D01*
X7070260Y582830D01*
X7081930Y596160D01*
X7093600Y582830D01*
X7101930Y556170D01*
X7106930Y516160D01*
Y329500D01*
G01X7122170D02*
Y596160D01*
G01Y522830D02*
X7127170Y556170D01*
X7135500Y582830D01*
X7147170Y596160D01*
X7158830Y582830D01*
X7167170Y556170D01*
X7172170Y522830D01*
Y329500D01*
G01Y522830D02*
X7177170Y556170D01*
X7185500Y582830D01*
X7197170Y596160D01*
X7208840Y582830D01*
X7217170Y556170D01*
X7222170Y516160D01*
Y329500D01*
G01X2726500Y998250D02*
X2882200Y842550D01*
X8653050D01*
X9500000Y1689500D01*
Y3246000D01*
G01X2726500Y998250D02*
X2984500Y1256250D01*
G01X2726500Y872500D02*
Y998250D01*
G01D02*
Y1124000D01*
G01Y998250D02*
X2852250D01*
G01X3838000Y1991500D02*
X3706000D01*
X3556000Y1841500D01*
Y1266250D01*
X3272500Y982750D01*
G01X2984500Y1256250D02*
Y2032000D01*
X3556000Y2603500D01*
G01X2726500Y2014250D02*
X3272500Y1998750D01*
G01X3277750Y2695500D02*
X3272500Y1998750D01*
G01X3492500Y4762500D02*
Y4572000D01*
X3333750Y4413250D01*
G01X5270500Y4762500D02*
X5524500D01*
X5588000Y4826000D01*
Y5080000D01*
X5524500Y5143500D01*
X4953000D01*
X4222750Y4413250D01*
X3333750D01*
G01X4318000Y4191000D02*
X3988600Y4520400D01*
X3276600D01*
X3238500Y4558500D01*
Y4699000D01*
X3492500Y4953000D01*
Y5016500D01*
G01X3203000Y5799500D02*
Y6199500D01*
G01X3318240Y6066160D02*
Y5799500D01*
G01Y6172830D02*
X3314910Y6179490D01*
Y6192830D01*
X3318240Y6199500D01*
X3321570Y6192830D01*
Y6179490D01*
X3318240Y6172830D01*
G01X3405150Y5799500D02*
Y6066160D01*
G01Y5999490D02*
X3411810Y6032830D01*
X3421810Y6059490D01*
X3435150Y6066160D01*
X3446810Y6059490D01*
X3456810Y6032830D01*
X3461810Y5986160D01*
Y5799500D01*
G01X3523720Y5979500D02*
X3577050D01*
X3572050Y6026170D01*
X3563720Y6052830D01*
X3552050Y6066160D01*
X3540390Y6059490D01*
X3530390Y6039500D01*
X3523720Y5992830D01*
X3520390Y5952820D01*
Y5912830D01*
X3523720Y5872830D01*
X3532050Y5832830D01*
X3542050Y5806170D01*
X3553720Y5799500D01*
X3565390Y5812830D01*
X3577050Y5852820D01*
G01X3737530Y6066160D02*
X3757530Y5799500D01*
X3779200Y6066160D01*
X3800870Y5799500D01*
X3820870Y6066160D01*
G01X3894440D02*
Y5799500D01*
G01Y6172830D02*
X3891110Y6179490D01*
Y6192830D01*
X3894440Y6199500D01*
X3897770Y6192830D01*
Y6179490D01*
X3894440Y6172830D01*
G01X4039680Y6199500D02*
Y5799500D01*
G01Y5859490D02*
X4033010Y5826160D01*
X4023010Y5806170D01*
X4011350Y5799500D01*
X3998010Y5812830D01*
X3988010Y5846160D01*
X3981350Y5886160D01*
X3979680Y5932830D01*
X3981350Y5979500D01*
X3988010Y6019500D01*
X3998010Y6052830D01*
X4011350Y6066160D01*
X4023010Y6059490D01*
X4031350Y6046160D01*
X4039680Y6019500D01*
G01X4124920Y6199500D02*
Y5799500D01*
G01X4101590Y6066160D02*
X4148250D01*
G01X4211830Y5799500D02*
Y6199500D01*
G01Y6006170D02*
X4220160Y6039500D01*
X4228490Y6059490D01*
X4241830Y6066160D01*
X4251830Y6059490D01*
X4263490Y6032830D01*
X4268490Y5992830D01*
Y5799500D01*
G01X4470640Y5786170D02*
X4467310Y5792830D01*
Y5806170D01*
X4470640Y5812830D01*
X4473970Y5806170D01*
Y5792830D01*
X4470640Y5786170D01*
G01Y5966160D02*
X4467310Y5972830D01*
Y5986160D01*
X4470640Y5992830D01*
X4473970Y5986160D01*
Y5972830D01*
X4470640Y5966160D01*
G01X4701120Y6199500D02*
X4687780Y6186170D01*
X4677790Y6152830D01*
X4671120Y6112840D01*
X4666120Y6059490D01*
X4664450Y5999490D01*
X4666120Y5939490D01*
X4671120Y5886160D01*
X4677790Y5846160D01*
X4687780Y5812830D01*
X4701120Y5799500D01*
X4714450Y5812830D01*
X4724450Y5846160D01*
X4731120Y5886160D01*
X4736120Y5939490D01*
X4737790Y5999490D01*
X4736120Y6059490D01*
X4731120Y6112840D01*
X4724450Y6152830D01*
X4714450Y6186170D01*
X4701120Y6199500D01*
G01X4816360Y5786170D02*
X4813030Y5792830D01*
Y5806170D01*
X4816360Y5812830D01*
X4819690Y5806170D01*
Y5792830D01*
X4816360Y5786170D01*
G01X4894930Y5859490D02*
X4904930Y5826160D01*
X4916600Y5806170D01*
X4931600Y5799500D01*
X4946600Y5812830D01*
X4958270Y5839490D01*
X4966600Y5886160D01*
X4968270Y5939490D01*
X4964930Y5992830D01*
X4956600Y6026170D01*
X4944930Y6052830D01*
X4933270Y6059490D01*
X4921600Y6052830D01*
X4906600Y6026170D01*
X4911600Y6199500D01*
X4956600D01*
G01X4996840Y5799500D02*
Y6066160D01*
G01Y5992830D02*
X5001840Y6026170D01*
X5010170Y6052830D01*
X5021840Y6066160D01*
X5033500Y6052830D01*
X5041840Y6026170D01*
X5046840Y5992830D01*
Y5799500D01*
G01Y5992830D02*
X5051840Y6026170D01*
X5060170Y6052830D01*
X5071840Y6066160D01*
X5083510Y6052830D01*
X5091840Y6026170D01*
X5096840Y5986160D01*
Y5799500D01*
G01X5112080D02*
Y6066160D01*
G01Y5992830D02*
X5117080Y6026170D01*
X5125410Y6052830D01*
X5137080Y6066160D01*
X5148740Y6052830D01*
X5157080Y6026170D01*
X5162080Y5992830D01*
Y5799500D01*
G01Y5992830D02*
X5167080Y6026170D01*
X5175410Y6052830D01*
X5187080Y6066160D01*
X5198750Y6052830D01*
X5207080Y6026170D01*
X5212080Y5986160D01*
Y5799500D01*
G01X5389230Y5726170D02*
X5395890Y5812830D01*
G01X5594710Y5799500D02*
Y6199500D01*
G01Y6006170D02*
X5603040Y6039500D01*
X5611370Y6059490D01*
X5624710Y6066160D01*
X5634710Y6059490D01*
X5646370Y6032830D01*
X5651370Y5992830D01*
Y5799500D01*
G01X5713280Y5979500D02*
X5766610D01*
X5761610Y6026170D01*
X5753280Y6052830D01*
X5741610Y6066160D01*
X5729950Y6059490D01*
X5719950Y6039500D01*
X5713280Y5992830D01*
X5709950Y5952820D01*
Y5912830D01*
X5713280Y5872830D01*
X5721610Y5832830D01*
X5731610Y5806170D01*
X5743280Y5799500D01*
X5754950Y5812830D01*
X5766610Y5852820D01*
G01X5853520Y6066160D02*
Y5799500D01*
G01Y6172830D02*
X5850190Y6179490D01*
Y6192830D01*
X5853520Y6199500D01*
X5856850Y6192830D01*
Y6179490D01*
X5853520Y6172830D01*
G01X5945430Y5699500D02*
X5957090Y5672840D01*
X5970430Y5666170D01*
X5982090Y5672840D01*
X5992090Y5706160D01*
X5998760Y5752830D01*
Y6066160D01*
G01Y6012840D02*
X5992090Y6039500D01*
X5982090Y6059490D01*
X5970430Y6066160D01*
X5957090Y6052830D01*
X5948760Y6026170D01*
X5942090Y5979500D01*
X5938760Y5932830D01*
X5940430Y5892830D01*
X5947090Y5846160D01*
X5957090Y5812830D01*
X5970430Y5799500D01*
X5980430Y5806170D01*
X5992090Y5832830D01*
X5998760Y5859490D01*
G01X6055670Y5799500D02*
Y6199500D01*
G01Y6006170D02*
X6064000Y6039500D01*
X6072330Y6059490D01*
X6085670Y6066160D01*
X6095670Y6059490D01*
X6107330Y6032830D01*
X6112330Y5992830D01*
Y5799500D01*
G01X6199240Y6199500D02*
Y5799500D01*
G01X6175910Y6066160D02*
X6222570D01*
G01X6429720Y5786170D02*
X6426390Y5792830D01*
Y5806170D01*
X6429720Y5812830D01*
X6433050Y5806170D01*
Y5792830D01*
X6429720Y5786170D01*
G01Y5966160D02*
X6426390Y5972830D01*
Y5986160D01*
X6429720Y5992830D01*
X6433050Y5986160D01*
Y5972830D01*
X6429720Y5966160D01*
G01X6680200Y5799500D02*
Y6199500D01*
X6618530Y5912830D01*
X6701870D01*
G01X6840680Y5799500D02*
Y6066160D01*
G01Y5992830D02*
X6845680Y6026170D01*
X6854010Y6052830D01*
X6865680Y6066160D01*
X6877340Y6052830D01*
X6885680Y6026170D01*
X6890680Y5992830D01*
Y5799500D01*
G01Y5992830D02*
X6895680Y6026170D01*
X6904010Y6052830D01*
X6915680Y6066160D01*
X6927350Y6052830D01*
X6935680Y6026170D01*
X6940680Y5986160D01*
Y5799500D01*
G01X6955920D02*
Y6066160D01*
G01Y5992830D02*
X6960920Y6026170D01*
X6969250Y6052830D01*
X6980920Y6066160D01*
X6992580Y6052830D01*
X7000920Y6026170D01*
X7005920Y5992830D01*
Y5799500D01*
G01Y5992830D02*
X7010920Y6026170D01*
X7019250Y6052830D01*
X7030920Y6066160D01*
X7042590Y6052830D01*
X7050920Y6026170D01*
X7055920Y5986160D01*
Y5799500D01*
G01X3492500Y5270500D02*
X3302000Y5461000D01*
Y6350000D01*
X3429000Y6477000D01*
X8636000D01*
X9144000Y5969000D01*
Y2857500D01*
X8890000Y2603500D01*
G01X2747950Y6096000D02*
X4762500D01*
G01X3838000Y975500D02*
X4559500Y1166500D01*
G01X3556000Y2603500D02*
Y3175000D01*
G01X4318000D02*
X3556000D01*
G01D02*
Y3300750D01*
G01X3430250Y3175000D02*
X3556000D01*
G01X3738670Y6769410D02*
X3728670Y6789420D01*
X3717000Y6802750D01*
X3703670D01*
X3688660Y6782740D01*
X3677000Y6749420D01*
X3668670Y6709410D01*
X3662000Y6642750D01*
X3660330Y6582750D01*
X3663670Y6522750D01*
X3668670Y6482750D01*
X3678670Y6442740D01*
X3690330Y6416080D01*
X3702000Y6402750D01*
X3713670D01*
X3725330Y6416080D01*
X3735330Y6436080D01*
X3743670Y6462740D01*
G01X3782240Y6402750D02*
Y6802750D01*
G01X3852240D02*
Y6402750D01*
G01Y6602740D02*
X3782240D01*
G01X3932480Y6402750D02*
X3919140Y6409420D01*
X3907480Y6436080D01*
X3897480Y6476080D01*
X3890810Y6522750D01*
X3887480Y6576080D01*
Y6629420D01*
X3890810Y6682750D01*
X3897480Y6729420D01*
X3907480Y6769410D01*
X3919140Y6796080D01*
X3932480Y6802750D01*
X3945810Y6796080D01*
X3957480Y6769410D01*
X3967480Y6729420D01*
X3974150Y6682750D01*
X3977480Y6629420D01*
Y6576080D01*
X3974150Y6522750D01*
X3967480Y6476080D01*
X3957480Y6436080D01*
X3945810Y6409420D01*
X3932480Y6402750D01*
G01X4014390D02*
Y6802750D01*
X4054390D01*
X4067720Y6782740D01*
X4077720Y6736090D01*
X4081050Y6682750D01*
X4077720Y6629420D01*
X4069390Y6589410D01*
X4054390Y6569410D01*
X4014390D01*
G01X4129630Y6402750D02*
Y6802750D01*
X4169630D01*
X4182960Y6782740D01*
X4192960Y6736090D01*
X4196290Y6682750D01*
X4192960Y6629420D01*
X4184630Y6589410D01*
X4169630Y6569410D01*
X4129630D01*
G01X4258200Y6802750D02*
X4298200D01*
G01X4278200D02*
Y6402750D01*
G01X4258200D02*
X4298200D01*
G01X4355110D02*
Y6802750D01*
X4431770Y6402750D01*
Y6802750D01*
G01X4518680Y6602740D02*
X4552010D01*
Y6482750D01*
X4542010Y6442740D01*
X4530350Y6416080D01*
X4513680Y6402750D01*
X4497010Y6416080D01*
X4485350Y6442740D01*
X4475350Y6482750D01*
X4468680Y6529410D01*
X4465350Y6582750D01*
Y6629420D01*
X4468680Y6669410D01*
X4475350Y6716090D01*
X4485350Y6756080D01*
X4495340Y6782740D01*
X4508680Y6802750D01*
X4520350D01*
X4533680Y6789420D01*
X4543680Y6762750D01*
G01X4689160Y6802750D02*
X4712490Y6402750D01*
X4739160Y6802750D01*
X4765830Y6402750D01*
X4789160Y6802750D01*
G01X4812730Y6402750D02*
X4854400Y6802750D01*
X4896070Y6402750D01*
G01X4881070Y6542740D02*
X4827730D01*
G01X4927970Y6802750D02*
X4969640Y6402750D01*
X5011310Y6802750D01*
G01X5118210Y6402750D02*
X5051550D01*
Y6802750D01*
X5118210D01*
G01X5091550Y6609420D02*
X5051550D01*
G01X5315360Y6402750D02*
X5302020Y6409420D01*
X5290360Y6436080D01*
X5280360Y6476080D01*
X5273690Y6522750D01*
X5270360Y6576080D01*
Y6629420D01*
X5273690Y6682750D01*
X5280360Y6729420D01*
X5290360Y6769410D01*
X5302020Y6796080D01*
X5315360Y6802750D01*
X5328690Y6796080D01*
X5340360Y6769410D01*
X5350360Y6729420D01*
X5357030Y6682750D01*
X5360360Y6629420D01*
Y6576080D01*
X5357030Y6522750D01*
X5350360Y6476080D01*
X5340360Y6436080D01*
X5328690Y6409420D01*
X5315360Y6402750D01*
G01X5395600Y6456070D02*
X5408930Y6422750D01*
X5423930Y6402750D01*
X5437270D01*
X5450600Y6422750D01*
X5460600Y6456070D01*
X5465600Y6502750D01*
X5462270Y6549410D01*
X5453930Y6589410D01*
X5438930Y6616090D01*
X5418930Y6629420D01*
X5407270Y6656080D01*
X5402270Y6702750D01*
X5405600Y6749420D01*
X5413930Y6782740D01*
X5425600Y6802750D01*
X5437270D01*
X5448930Y6789420D01*
X5458930Y6756080D01*
G01X5582510Y6769410D02*
X5572510Y6789420D01*
X5560840Y6802750D01*
X5547510D01*
X5532500Y6782740D01*
X5520840Y6749420D01*
X5512510Y6709410D01*
X5505840Y6642750D01*
X5504170Y6582750D01*
X5507510Y6522750D01*
X5512510Y6482750D01*
X5522510Y6442740D01*
X5534170Y6416080D01*
X5545840Y6402750D01*
X5557510D01*
X5569170Y6416080D01*
X5579170Y6436080D01*
X5587510Y6462740D01*
G01X4548580Y1061000D02*
X4481920D01*
Y1461000D01*
X4548580D01*
G01X4521920Y1267670D02*
X4481920D01*
G01X4597160Y1461000D02*
Y1061000D01*
X4663820D01*
G01X4779060D02*
X4712400D01*
Y1461000D01*
X4779060D01*
G01X4752400Y1267670D02*
X4712400D01*
G01X4897640Y1427660D02*
X4887640Y1447670D01*
X4875970Y1461000D01*
X4862640D01*
X4847630Y1440990D01*
X4835970Y1407670D01*
X4827640Y1367660D01*
X4820970Y1301000D01*
X4819300Y1241000D01*
X4822640Y1181000D01*
X4827640Y1141000D01*
X4837640Y1100990D01*
X4849300Y1074330D01*
X4860970Y1061000D01*
X4872640D01*
X4884300Y1074330D01*
X4894300Y1094330D01*
X4902640Y1120990D01*
G01X4976210Y1461000D02*
Y1061000D01*
G01X4937880Y1461000D02*
X5014540D01*
G01X5058120Y1061000D02*
Y1461000D01*
X5099780D01*
X5113120Y1440990D01*
X5121450Y1414330D01*
X5124780Y1361000D01*
X5121450Y1307660D01*
X5111450Y1274340D01*
X5099780Y1254330D01*
X5058120D01*
G01X5099780D02*
X5124780Y1061000D01*
G01X5206690D02*
X5193350Y1067670D01*
X5181690Y1094330D01*
X5171690Y1134330D01*
X5165020Y1181000D01*
X5161690Y1234330D01*
Y1287670D01*
X5165020Y1341000D01*
X5171690Y1387670D01*
X5181690Y1427660D01*
X5193350Y1454330D01*
X5206690Y1461000D01*
X5220020Y1454330D01*
X5231690Y1427660D01*
X5241690Y1387670D01*
X5248360Y1341000D01*
X5251690Y1287670D01*
Y1234330D01*
X5248360Y1181000D01*
X5241690Y1134330D01*
X5231690Y1094330D01*
X5220020Y1067670D01*
X5206690Y1061000D01*
G01X5283600D02*
Y1461000D01*
X5360260Y1061000D01*
Y1461000D01*
G01X5417170D02*
X5457170D01*
G01X5437170D02*
Y1061000D01*
G01X5417170D02*
X5457170D01*
G01X5589080Y1427660D02*
X5579080Y1447670D01*
X5567410Y1461000D01*
X5554080D01*
X5539070Y1440990D01*
X5527410Y1407670D01*
X5519080Y1367660D01*
X5512410Y1301000D01*
X5510740Y1241000D01*
X5514080Y1181000D01*
X5519080Y1141000D01*
X5529080Y1100990D01*
X5540740Y1074330D01*
X5552410Y1061000D01*
X5564080D01*
X5575740Y1074330D01*
X5585740Y1094330D01*
X5594080Y1120990D01*
G01X5819560Y1427660D02*
X5809560Y1447670D01*
X5797890Y1461000D01*
X5784560D01*
X5769550Y1440990D01*
X5757890Y1407670D01*
X5749560Y1367660D01*
X5742890Y1301000D01*
X5741220Y1241000D01*
X5744560Y1181000D01*
X5749560Y1141000D01*
X5759560Y1100990D01*
X5771220Y1074330D01*
X5782890Y1061000D01*
X5794560D01*
X5806220Y1074330D01*
X5816220Y1094330D01*
X5824560Y1120990D01*
G01X5856460Y1061000D02*
X5898130Y1461000D01*
X5939800Y1061000D01*
G01X5924800Y1200990D02*
X5871460D01*
G01X5976700Y1061000D02*
Y1461000D01*
X6010040D01*
X6023370Y1440990D01*
X6033370Y1414330D01*
X6041700Y1374340D01*
X6048370Y1327660D01*
X6050040Y1260990D01*
X6048370Y1194330D01*
X6041700Y1147660D01*
X6033370Y1107660D01*
X6023370Y1081000D01*
X6010040Y1061000D01*
X5976700D01*
G01X4813500Y1420500D02*
X4559500Y1674500D01*
G01D02*
X4572500Y2422500D01*
G01X4826500Y2676500D02*
X4572500Y2422500D01*
G01X4826500Y2168500D02*
X5414750Y2154750D01*
G01X4826000Y3175000D02*
X4318000D01*
G01X5016500Y5016500D02*
X4953000Y4953000D01*
Y3302000D01*
X4826000Y3175000D01*
G01X4318000Y3049250D02*
Y3175000D01*
G01D02*
Y3300750D01*
G01X4254500Y5270500D02*
X4381500D01*
X4762500Y5651500D01*
Y6096000D01*
G01X8890000Y3619500D02*
Y5969000D01*
X8509000Y6350000D01*
X4635500D01*
X4445000Y6159500D01*
Y5207000D01*
X4254500Y5016500D01*
G01X6286500Y6068670D02*
X6253160Y6096000D01*
X4762500D01*
G01X4610010Y8398750D02*
Y8798750D01*
X4590010Y8718750D01*
G01Y8398750D02*
X4630010D01*
G01X4725250Y8798750D02*
X4711910Y8785420D01*
X4701920Y8752080D01*
X4695250Y8712090D01*
X4690250Y8658740D01*
X4688580Y8598740D01*
X4690250Y8538740D01*
X4695250Y8485410D01*
X4701920Y8445410D01*
X4711910Y8412080D01*
X4725250Y8398750D01*
X4738580Y8412080D01*
X4748580Y8445410D01*
X4755250Y8485410D01*
X4760250Y8538740D01*
X4761920Y8598740D01*
X4760250Y8658740D01*
X4755250Y8712090D01*
X4748580Y8752080D01*
X4738580Y8785420D01*
X4725250Y8798750D01*
G01X4840490D02*
X4827150Y8785420D01*
X4817160Y8752080D01*
X4810490Y8712090D01*
X4805490Y8658740D01*
X4803820Y8598740D01*
X4805490Y8538740D01*
X4810490Y8485410D01*
X4817160Y8445410D01*
X4827150Y8412080D01*
X4840490Y8398750D01*
X4853820Y8412080D01*
X4863820Y8445410D01*
X4870490Y8485410D01*
X4875490Y8538740D01*
X4877160Y8598740D01*
X4875490Y8658740D01*
X4870490Y8712090D01*
X4863820Y8752080D01*
X4853820Y8785420D01*
X4840490Y8798750D01*
G01X5414750Y1138750D02*
X6075000Y1198000D01*
G01X6540500Y3683000D02*
X6917890Y3305610D01*
Y3234890D01*
X6540500Y2857500D01*
X5969000D01*
X5270500Y3556000D01*
Y4762500D01*
G01Y4897100D02*
Y5016500D01*
G01D02*
X5016500D01*
G01X5270500D02*
X5389900D01*
G01X8255000Y4953000D02*
X8763000Y5461000D01*
Y5778500D01*
X8318500Y6223000D01*
X5270500D01*
X5016500Y5969000D01*
Y5524500D01*
X5270500Y5270500D01*
G01X6075000Y1198000D02*
Y2138000D01*
X6350000Y2413000D01*
G01X6286500Y3429000D02*
Y2476500D01*
X6350000Y2413000D01*
G01D02*
X8509000D01*
X8699500Y2603500D01*
Y3683000D01*
X8382000Y4000500D01*
X7429500D01*
X7112000Y4318000D01*
Y4572000D01*
X7493000Y4953000D01*
G01X6032500Y5270500D02*
X6413500Y4889500D01*
Y4064000D01*
X6032500Y3683000D01*
G01X7810500Y3746500D02*
X7302500D01*
X6032500Y5016500D01*
G01X6286500Y6068670D02*
Y5511000D01*
X6236500Y5461000D01*
X6223000D01*
X6032500Y5270500D01*
G01X8255000Y5207000D02*
X8636000Y5588000D01*
Y5855500D01*
X8395500Y6096000D01*
X6313830D01*
X6286500Y6068670D01*
G01X7091000Y1198000D02*
X7810500Y2730500D01*
G01X6540500Y3683000D02*
X6621040Y3763540D01*
Y3827040D01*
X7493000Y4699000D01*
G01X7810500Y2730500D02*
X7937500D01*
X8128000Y2921000D01*
Y3810000D01*
X8509000Y4191000D01*
Y4699000D01*
X8255000Y4953000D01*
G01X8382000Y3746500D02*
X7810500D01*
G01X7493000Y5207000D02*
Y4953000D01*
G01X8382000Y2730500D02*
X8890000Y2603500D01*
G01X9500000Y3126600D02*
Y3246000D01*
G01D02*
Y3365400D01*
G01X9380600Y3246000D02*
X9500000D01*
G01Y3500000D02*
X9386100D01*
X9315100Y3429000D01*
X8953500D01*
X8890000Y3492500D01*
Y3619500D01*
G01X11124800Y3570750D02*
X11128130Y3657410D01*
X11133130Y3730740D01*
X11139800Y3797420D01*
X11148130Y3870750D01*
X11161460Y3970750D01*
X11094800D01*
G01X11243370D02*
X11230030Y3957420D01*
X11220040Y3924080D01*
X11213370Y3884090D01*
X11208370Y3830740D01*
X11206700Y3770740D01*
X11208370Y3710740D01*
X11213370Y3657410D01*
X11220040Y3617410D01*
X11230030Y3584080D01*
X11243370Y3570750D01*
X11256700Y3584080D01*
X11266700Y3617410D01*
X11273370Y3657410D01*
X11278370Y3710740D01*
X11280040Y3770740D01*
X11278370Y3830740D01*
X11273370Y3884090D01*
X11266700Y3924080D01*
X11256700Y3957420D01*
X11243370Y3970750D01*
M02*
