G04 ================== begin FILE IDENTIFICATION RECORD ==================*
G04 Layout Name:  C:/USERS/USER/DESKTOP/WORK/0731/allegro/CHOPPING_WAVE.brd*
G04 Film Name:    SoldermaskBottom*
G04 File Format:  Gerber RS274X*
G04 File Origin:  Cadence Allegro 17.2-S052*
G04 Origin Date:  Wed Jul 31 13:17:38 2019*
G04 *
G04 Layer:  VIA CLASS/SOLDERMASK_BOTTOM*
G04 Layer:  PIN/SOLDERMASK_BOTTOM*
G04 Layer:  PACKAGE GEOMETRY/SOLDERMASK_BOTTOM*
G04 Layer:  BOARD GEOMETRY/SOLDERMASK_BOTTOM*
G04 *
G04 Offset:    (0.0000 0.0000)*
G04 Mirror:    No*
G04 Mode:      Positive*
G04 Rotation:  0*
G04 FullContactRelief:  No*
G04 UndefLineWidth:     0.0000*
G04 ================== end FILE IDENTIFICATION RECORD ====================*
%FSLAX25Y25*MOMM*%
%IR0*IPPOS*OFA0.00000B0.00000*MIA0B0*SFA1.00000B1.00000*%
%ADD11C,2.032*%
%ADD12C,1.905*%
%ADD10C,3.683*%
%ADD13R,1.905X1.905*%
%LPD*%
G75*
G54D10*
X500000Y500000D03*
Y6500000D03*
X9500000Y500000D03*
Y6500000D03*
G54D11*
X1135500Y1013750D03*
Y2029750D03*
X1624250Y1024250D03*
Y2040250D03*
X2201500Y1008750D03*
X2726500Y998250D03*
X2201500Y2024750D03*
X2726500Y2014250D03*
X3272500Y982750D03*
Y1998750D03*
X3838000Y975500D03*
Y1991500D03*
X3556000Y3175000D03*
Y4191000D03*
X4318000Y3175000D03*
Y4191000D03*
X5414750Y1138750D03*
Y2154750D03*
X6075000Y1198000D03*
X7091000D03*
X7810500Y2730500D03*
Y3746500D03*
X8382000Y2730500D03*
Y3746500D03*
X8890000Y2603500D03*
Y3619500D03*
G54D12*
X500000Y2992000D03*
Y3246000D03*
Y3500000D03*
X952500Y3810000D03*
Y4064000D03*
X1282000Y2705750D03*
X1536000D03*
X1651000Y4699000D03*
Y4953000D03*
Y5207000D03*
X2332250Y2664250D03*
X2586250D03*
X2413000Y4699000D03*
Y4953000D03*
Y5207000D03*
Y5461000D03*
X3023750Y2695500D03*
X3277750D03*
X3492500Y4762500D03*
Y5016500D03*
Y5270500D03*
X4254500Y4762500D03*
Y5016500D03*
Y5270500D03*
Y5524500D03*
X4559500Y1166500D03*
Y1674500D03*
X4813500Y1420500D03*
X4826500Y2168500D03*
X4572500Y2422500D03*
X4826500Y2676500D03*
X5270500Y4762500D03*
Y5016500D03*
Y5270500D03*
X6286500Y3429000D03*
X6540500Y3683000D03*
X6032500D03*
Y4762500D03*
Y5016500D03*
Y5270500D03*
Y5524500D03*
X7493000Y4699000D03*
Y4953000D03*
Y5207000D03*
X8255000Y4699000D03*
Y4953000D03*
Y5207000D03*
Y5461000D03*
X9500000Y3246000D03*
Y3500000D03*
G54D13*
X1651000Y5461000D03*
X3492500Y5524500D03*
X5270500D03*
X7493000Y5461000D03*
M02*
